SplineFontDB: 3.0
FontName: LetsgoDigital-Regular
FullName: Let's go Digital Regular
FamilyName: Let's go Digital
Weight: Bold
Copyright: By Wolf Lambert - 2012
Version: 1.0
ItalicAngle: -5
UnderlinePosition: -85
UnderlineWidth: 70
Ascent: 880
Descent: 220
sfntRevision: 0x00010000
LayerCount: 2
Layer: 0 1 "Back"  1
Layer: 1 1 "Fore"  0
XUID: [1021 489 1808476927 15219737]
FSType: 2
OS2Version: 3
OS2_WeightWidthSlopeOnly: 0
OS2_UseTypoMetrics: 1
CreationTime: -1164963181
ModificationTime: 1414173889
PfmFamily: 81
TTFWeight: 700
TTFWidth: 5
LineGap: 0
VLineGap: 0
Panose: 0 0 0 0 0 0 0 0 0 0
OS2TypoAscent: 800
OS2TypoAOffset: 0
OS2TypoDescent: 200
OS2TypoDOffset: 0
OS2TypoLinegap: 0
OS2WinAscent: 900
OS2WinAOffset: 0
OS2WinDescent: 187
OS2WinDOffset: 0
HheadAscent: 900
HheadAOffset: 0
HheadDescent: -200
HheadDOffset: 0
OS2SubXSize: 700
OS2SubYSize: 650
OS2SubXOff: 0
OS2SubYOff: 143
OS2SupXSize: 700
OS2SupYSize: 650
OS2SupXOff: 0
OS2SupYOff: 453
OS2StrikeYSize: 50
OS2StrikeYPos: 259
OS2Vendor: 'Alts'
OS2CodePages: 00000001.00000000
OS2UnicodeRanges: 00000001.00000000.00000000.00000000
DEI: 91125
TtTable: prep
NPUSHB
 14
 30
 30
 29
 29
 13
 13
 4
 4
 0
 0
 16
 16
 69
 1
SCANTYPE
PUSHW_1
 511
SCANCTRL
SROUND
RCVT
ROUND[Grey]
WCVTP
RTG
PUSHB_4
 1
 0
 70
 0
CALL
PUSHB_4
 2
 0
 70
 0
CALL
PUSHB_4
 3
 0
 70
 0
CALL
PUSHB_4
 5
 13
 70
 0
CALL
PUSHB_4
 6
 13
 70
 0
CALL
PUSHB_4
 7
 0
 70
 0
CALL
PUSHB_4
 8
 0
 70
 0
CALL
PUSHB_4
 9
 13
 70
 0
CALL
PUSHB_4
 10
 4
 70
 0
CALL
PUSHB_4
 11
 16
 70
 0
CALL
PUSHB_4
 12
 4
 70
 0
CALL
PUSHB_4
 14
 4
 70
 0
CALL
PUSHB_4
 15
 13
 70
 0
CALL
PUSHB_4
 17
 16
 70
 0
CALL
PUSHB_4
 18
 13
 70
 0
CALL
PUSHB_4
 19
 16
 70
 0
CALL
PUSHB_4
 20
 13
 70
 0
CALL
PUSHB_4
 21
 4
 70
 0
CALL
PUSHB_4
 22
 16
 70
 0
CALL
PUSHB_4
 23
 13
 70
 0
CALL
PUSHB_4
 24
 16
 70
 0
CALL
PUSHB_4
 25
 4
 70
 0
CALL
PUSHB_4
 26
 4
 70
 0
CALL
PUSHB_4
 27
 4
 70
 0
CALL
PUSHB_4
 28
 4
 70
 0
CALL
RCVT
ROUND[Grey]
WCVTP
RCVT
ROUND[Grey]
WCVTP
RCVT
ROUND[Grey]
WCVTP

StartChar: .notdef
Encoding: 65536 -1 0
Width: 550
Flags: W
LayerCount: 2
Fore
SplineSet
34 0 m 1,0,-1
 34 900 l 1,1,-1
 516 900 l 1,2,-1
 516 0 l 1,3,-1
 34 0 l 1,0,-1
482 34 m 1,4,-1
 482 866 l 1,5,-1
 68 866 l 1,6,-1
 68 34 l 1,7,-1
 482 34 l 1,4,-1
EndSplineSet
EndChar

StartChar: exclam
Encoding: 33 33 4
Width: 314
Flags: W
LayerCount: 2
Fore
SplineSet
241 433 m 1,0,-1
 216 142 l 1,1,-1
 121 246 l 1,2,-1
 135 407 l 1,3,-1
 206 472 l 1,4,-1
 241 433 l 1,0,-1
150 577 m 1,5,-1
 164 737 l 1,6,-1
 277 842 l 1,7,-1
 252 551 l 1,8,-1
 209 511 l 1,9,-1
 150 577 l 1,5,-1
204 2 m 1,10,-1
 100 2 l 1,11,-1
 108 95 l 1,12,-1
 212 95 l 1,13,-1
 204 2 l 1,10,-1
EndSplineSet
EndChar

StartChar: quotedbl
Encoding: 34 34 5
Width: 340
Flags: W
LayerCount: 2
Fore
SplineSet
200 561 m 1,0,-1
 143 508 l 1,1,-1
 96 561 l 1,2,-1
 108 700 l 1,3,-1
 212 700 l 1,4,-1
 200 561 l 1,0,-1
342 561 m 1,5,-1
 285 508 l 1,6,-1
 237 561 l 1,7,-1
 249 700 l 1,8,-1
 354 700 l 1,9,-1
 342 561 l 1,5,-1
EndSplineSet
EndChar

StartChar: numbersign
Encoding: 35 35 6
Width: 665
Flags: W
LayerCount: 2
Fore
SplineSet
316 300 m 1,0,-1
 259 248 l 1,1,-1
 211 300 l 1,2,-1
 216 353 l 1,3,-1
 272 405 l 1,4,-1
 321 353 l 1,5,-1
 316 300 l 1,0,-1
428 229 m 1,6,-1
 371 177 l 1,7,-1
 324 177 l 1,8,-1
 277 229 l 1,9,-1
 334 281 l 1,10,-1
 381 281 l 1,11,-1
 428 229 l 1,6,-1
238 229 m 1,12,-1
 181 177 l 1,13,-1
 125 177 l 1,14,-1
 78 229 l 1,15,-1
 135 281 l 1,16,-1
 191 281 l 1,17,-1
 238 229 l 1,12,-1
297 78 m 1,18,-1
 239 26 l 1,19,-1
 192 78 l 1,20,-1
 199 157 l 1,21,-1
 255 209 l 1,22,-1
 304 157 l 1,23,-1
 297 78 l 1,18,-1
506 300 m 1,24,-1
 450 248 l 1,25,-1
 401 300 l 1,26,-1
 406 353 l 1,27,-1
 463 405 l 1,28,-1
 511 353 l 1,29,-1
 506 300 l 1,24,-1
627 229 m 1,30,-1
 570 177 l 1,31,-1
 514 177 l 1,32,-1
 467 229 l 1,33,-1
 524 281 l 1,34,-1
 580 281 l 1,35,-1
 627 229 l 1,30,-1
487 78 m 1,36,-1
 430 26 l 1,37,-1
 382 78 l 1,38,-1
 389 157 l 1,39,-1
 446 209 l 1,40,-1
 494 157 l 1,41,-1
 487 78 l 1,36,-1
333 496 m 1,42,-1
 276 444 l 1,43,-1
 228 496 l 1,44,-1
 236 584 l 1,45,-1
 293 637 l 1,46,-1
 341 584 l 1,47,-1
 333 496 l 1,42,-1
445 424 m 1,48,-1
 389 372 l 1,49,-1
 342 372 l 1,50,-1
 294 424 l 1,51,-1
 351 476 l 1,52,-1
 398 476 l 1,53,-1
 445 424 l 1,48,-1
255 424 m 1,54,-1
 199 372 l 1,55,-1
 143 372 l 1,56,-1
 95 424 l 1,57,-1
 152 476 l 1,58,-1
 208 476 l 1,59,-1
 255 424 l 1,54,-1
523 496 m 1,60,-1
 467 444 l 1,61,-1
 418 496 l 1,62,-1
 426 584 l 1,63,-1
 484 637 l 1,64,-1
 531 584 l 1,65,-1
 523 496 l 1,60,-1
644 424 m 1,66,-1
 588 372 l 1,67,-1
 532 372 l 1,68,-1
 484 424 l 1,69,-1
 541 476 l 1,70,-1
 597 476 l 1,71,-1
 644 424 l 1,66,-1
EndSplineSet
EndChar

StartChar: dollar
Encoding: 36 36 7
Width: 560
Flags: W
LayerCount: 2
Fore
SplineSet
316 -41 m 1,0,-1
 213 -41 l 1,1,-1
 287 807 l 1,2,-1
 343 859 l 1,3,-1
 391 807 l 1,4,-1
 316 -41 l 1,0,-1
311 -108 m 1,5,-1
 254 -160 l 1,6,-1
 207 -108 l 1,7,-1
 214 -23 l 1,8,-1
 318 -23 l 1,9,-1
 311 -108 l 1,5,-1
558 648 m 1,10,-1
 501 595 l 1,11,-1
 234 595 l 1,12,-1
 187 648 l 1,13,-1
 243 700 l 1,14,-1
 510 700 l 1,15,-1
 558 648 l 1,10,-1
512 124 m 1,16,-1
 455 72 l 1,17,-1
 408 124 l 1,18,-1
 420 265 l 1,19,-1
 491 330 l 1,20,-1
 526 291 l 1,21,-1
 512 124 l 1,16,-1
474 350 m 1,22,-1
 417 298 l 1,23,-1
 195 298 l 1,24,-1
 148 350 l 1,25,-1
 204 402 l 1,26,-1
 426 402 l 1,27,-1
 474 350 l 1,22,-1
200 435 m 1,28,-1
 129 369 l 1,29,-1
 94 409 l 1,30,-1
 108 576 l 1,31,-1
 165 628 l 1,32,-1
 212 576 l 1,33,-1
 200 435 l 1,28,-1
435 52 m 1,34,-1
 378 0 l 1,35,-1
 110 0 l 1,36,-1
 63 52 l 1,37,-1
 119 104 l 1,38,-1
 387 104 l 1,39,-1
 435 52 l 1,34,-1
EndSplineSet
EndChar

StartChar: percent
Encoding: 37 37 8
Width: 769
Flags: W
LayerCount: 2
Fore
SplineSet
347 650 m 1,0,-1
 289 598 l 1,1,-1
 234 598 l 1,2,-1
 187 650 l 1,3,-1
 244 703 l 1,4,-1
 299 703 l 1,5,-1
 347 650 l 1,0,-1
327 423 m 1,6,-1
 269 370 l 1,7,-1
 214 370 l 1,8,-1
 167 423 l 1,9,-1
 224 475 l 1,10,-1
 279 475 l 1,11,-1
 327 423 l 1,6,-1
101 494 m 1,12,-1
 149 445 l 1,13,-1
 205 494 l 1,14,-1
 213 578 l 1,15,-1
 165 631 l 1,16,-1
 109 578 l 1,17,-1
 101 494 l 1,12,-1
300 494 m 1,18,-1
 308 578 l 1,19,-1
 364 631 l 1,20,-1
 412 578 l 1,21,-1
 404 494 l 1,22,-1
 348 445 l 1,23,-1
 300 494 l 1,18,-1
663 281 m 1,24,-1
 606 229 l 1,25,-1
 552 229 l 1,26,-1
 504 281 l 1,27,-1
 561 334 l 1,28,-1
 615 334 l 1,29,-1
 663 281 l 1,24,-1
643 59 m 1,30,-1
 587 7 l 1,31,-1
 533 7 l 1,32,-1
 484 59 l 1,33,-1
 542 111 l 1,34,-1
 596 111 l 1,35,-1
 643 59 l 1,30,-1
418 130 m 1,36,-1
 466 81 l 1,37,-1
 523 130 l 1,38,-1
 530 210 l 1,39,-1
 482 262 l 1,40,-1
 425 210 l 1,41,-1
 418 130 l 1,36,-1
617 130 m 1,42,-1
 624 210 l 1,43,-1
 681 262 l 1,44,-1
 728 210 l 1,45,-1
 721 130 l 1,46,-1
 665 81 l 1,47,-1
 617 130 l 1,42,-1
437 481 m 1,48,-1
 594 716 l 1,49,-1
 739 754 l 1,50,-1
 508 406 l 1,51,-1
 453 393 l 1,52,-1
 437 481 l 1,48,-1
440 305 m 1,53,-1
 193 -66 l 1,54,-1
 168 76 l 1,55,-1
 339 334 l 1,56,-1
 431 359 l 1,57,-1
 440 305 l 1,53,-1
EndSplineSet
EndChar

StartChar: ampersand
Encoding: 38 38 9
Width: 598
Flags: W
LayerCount: 2
Fore
SplineSet
487 648 m 1,0,-1
 430 595 l 1,1,-1
 234 595 l 1,2,-1
 187 648 l 1,3,-1
 243 700 l 1,4,-1
 439 700 l 1,5,-1
 487 648 l 1,0,-1
537 409 m 1,6,-1
 494 369 l 1,7,-1
 435 435 l 1,8,-1
 439 477 l 1,9,-1
 495 529 l 1,10,-1
 543 477 l 1,11,-1
 537 409 l 1,6,-1
512 124 m 1,12,-1
 455 72 l 1,13,-1
 408 124 l 1,14,-1
 420 265 l 1,15,-1
 491 330 l 1,16,-1
 526 291 l 1,17,-1
 512 124 l 1,12,-1
474 350 m 1,18,-1
 417 298 l 1,19,-1
 195 298 l 1,20,-1
 148 350 l 1,21,-1
 204 402 l 1,22,-1
 426 402 l 1,23,-1
 474 350 l 1,18,-1
200 435 m 1,24,-1
 129 369 l 1,25,-1
 94 409 l 1,26,-1
 108 576 l 1,27,-1
 165 628 l 1,28,-1
 212 576 l 1,29,-1
 200 435 l 1,24,-1
435 52 m 1,30,-1
 378 0 l 1,31,-1
 182 0 l 1,32,-1
 135 52 l 1,33,-1
 191 104 l 1,34,-1
 387 104 l 1,35,-1
 435 52 l 1,30,-1
173 124 m 1,36,-1
 116 72 l 1,37,-1
 69 124 l 1,38,-1
 83 291 l 1,39,-1
 126 330 l 1,40,-1
 185 265 l 1,41,-1
 173 124 l 1,36,-1
560 298 m 1,42,-1
 513 350 l 1,43,-1
 569 402 l 1,44,-1
 617 350 l 1,45,-1
 560 298 l 1,42,-1
EndSplineSet
EndChar

StartChar: quotesingle
Encoding: 39 39 10
Width: 198
Flags: W
LayerCount: 2
Fore
SplineSet
200 561 m 1,0,-1
 143 508 l 1,1,-1
 96 561 l 1,2,-1
 108 700 l 1,3,-1
 212 700 l 1,4,-1
 200 561 l 1,0,-1
EndSplineSet
EndChar

StartChar: parenleft
Encoding: 40 40 11
Width: 345
Flags: W
LayerCount: 2
Fore
SplineSet
189 435 m 1,0,-1
 118 369 l 1,1,-1
 83 409 l 1,2,-1
 97 576 l 1,3,-1
 154 628 l 1,4,-1
 201 576 l 1,5,-1
 189 435 l 1,0,-1
58 124 m 1,6,-1
 105 72 l 1,7,-1
 162 124 l 1,8,-1
 174 265 l 1,9,-1
 115 330 l 1,10,-1
 72 291 l 1,11,-1
 58 124 l 1,6,-1
223 595 m 1,12,-1
 175 648 l 1,13,-1
 232 700 l 1,14,-1
 383 700 l 1,15,-1
 269 595 l 1,16,-1
 223 595 l 1,12,-1
171 0 m 1,17,-1
 123 52 l 1,18,-1
 180 104 l 1,19,-1
 226 104 l 1,20,-1
 322 0 l 1,21,-1
 171 0 l 1,17,-1
EndSplineSet
EndChar

StartChar: parenright
Encoding: 41 41 12
Width: 345
Flags: W
LayerCount: 2
Fore
SplineSet
284 648 m 1,0,-1
 227 595 l 1,1,-1
 180 595 l 1,2,-1
 84 700 l 1,3,-1
 236 700 l 1,4,-1
 284 648 l 1,0,-1
335 409 m 1,5,-1
 292 369 l 1,6,-1
 232 435 l 1,7,-1
 244 576 l 1,8,-1
 302 628 l 1,9,-1
 349 576 l 1,10,-1
 335 409 l 1,5,-1
310 124 m 1,11,-1
 253 72 l 1,12,-1
 205 124 l 1,13,-1
 217 265 l 1,14,-1
 289 330 l 1,15,-1
 324 291 l 1,16,-1
 310 124 l 1,11,-1
232 52 m 1,17,-1
 175 0 l 1,18,-1
 23 0 l 1,19,-1
 137 104 l 1,20,-1
 184 104 l 1,21,-1
 232 52 l 1,17,-1
EndSplineSet
EndChar

StartChar: asterisk
Encoding: 42 42 13
Width: 605
Flags: W
LayerCount: 2
Fore
SplineSet
109 412 m 1,0,-1
 96 483 l 1,1,-1
 169 502 l 1,2,-1
 234 464 l 1,3,-1
 283 371 l 1,4,-1
 179 371 l 1,5,-1
 109 412 l 1,0,-1
441 210 m 1,6,-1
 515 229 l 1,7,-1
 501 300 l 1,8,-1
 433 346 l 1,9,-1
 328 346 l 1,10,-1
 376 252 l 1,11,-1
 441 210 l 1,6,-1
340 153 m 1,12,-1
 283 101 l 1,13,-1
 235 153 l 1,14,-1
 242 233 l 1,15,-1
 303 330 l 1,16,-1
 348 237 l 1,17,-1
 340 153 l 1,12,-1
369 477 m 1,18,-1
 307 382 l 1,19,-1
 264 477 l 1,20,-1
 271 559 l 1,21,-1
 327 611 l 1,22,-1
 376 559 l 1,23,-1
 369 477 l 1,18,-1
143 210 m 1,24,-1
 74 229 l 1,25,-1
 99 300 l 1,26,-1
 177 341 l 1,27,-1
 281 341 l 1,28,-1
 215 247 l 1,29,-1
 143 210 l 1,24,-1
436 374 m 1,30,-1
 331 374 l 1,31,-1
 395 467 l 1,32,-1
 467 502 l 1,33,-1
 537 483 l 1,34,-1
 511 412 l 1,35,-1
 436 374 l 1,30,-1
EndSplineSet
EndChar

StartChar: plus
Encoding: 43 43 14
Width: 570
Flags: W
LayerCount: 2
Fore
SplineSet
348 422 m 1,0,-1
 291 369 l 1,1,-1
 243 422 l 1,2,-1
 251 510 l 1,3,-1
 308 562 l 1,4,-1
 356 510 l 1,5,-1
 348 422 l 1,0,-1
501 350 m 1,6,-1
 444 298 l 1,7,-1
 356 298 l 1,8,-1
 309 350 l 1,9,-1
 365 402 l 1,10,-1
 453 402 l 1,11,-1
 501 350 l 1,6,-1
270 350 m 1,12,-1
 213 298 l 1,13,-1
 125 298 l 1,14,-1
 78 350 l 1,15,-1
 134 402 l 1,16,-1
 222 402 l 1,17,-1
 270 350 l 1,12,-1
328 190 m 1,18,-1
 271 138 l 1,19,-1
 223 190 l 1,20,-1
 230 278 l 1,21,-1
 288 330 l 1,22,-1
 335 278 l 1,23,-1
 328 190 l 1,18,-1
EndSplineSet
EndChar

StartChar: comma
Encoding: 44 44 15
Width: 198
Flags: W
LayerCount: 2
Fore
SplineSet
145 -64 m 1,0,-1
 89 -116 l 1,1,-1
 41 -64 l 1,2,-1
 54 75 l 1,3,-1
 158 75 l 1,4,-1
 145 -64 l 1,0,-1
EndSplineSet
EndChar

StartChar: hyphen
Encoding: 45 45 16
Width: 517
Flags: W
LayerCount: 2
Fore
SplineSet
501 350 m 1,0,-1
 444 298 l 1,1,-1
 125 298 l 1,2,-1
 78 350 l 1,3,-1
 134 402 l 1,4,-1
 453 402 l 1,5,-1
 501 350 l 1,0,-1
EndSplineSet
EndChar

StartChar: period
Encoding: 46 46 17
Width: 198
Flags: W
LayerCount: 2
Fore
SplineSet
47 0 m 1,0,-1
 56 104 l 1,1,-1
 160 104 l 1,2,-1
 151 0 l 1,3,-1
 47 0 l 1,0,-1
EndSplineSet
EndChar

StartChar: slash
Encoding: 47 47 18
Width: 539
Flags: W
LayerCount: 2
Fore
SplineSet
286 296 m 1,0,-1
 59 -42 l 1,1,-1
 33 101 l 1,2,-1
 185 326 l 1,3,-1
 277 349 l 1,4,-1
 286 296 l 1,0,-1
282 473 m 1,5,-1
 434 700 l 1,6,-1
 581 737 l 1,7,-1
 354 398 l 1,8,-1
 300 384 l 1,9,-1
 282 473 l 1,5,-1
EndSplineSet
EndChar

StartChar: zero
Encoding: 48 48 19
Width: 560
Flags: W
LayerCount: 2
Fore
SplineSet
543 700 m 1,0,-1
 430 595 l 1,1,-1
 234 595 l 1,2,-1
 139 700 l 1,3,-1
 543 700 l 1,0,-1
482 0 m 1,4,-1
 78 0 l 1,5,-1
 191 104 l 1,6,-1
 387 104 l 1,7,-1
 482 0 l 1,4,-1
185 265 m 1,8,-1
 173 124 l 1,9,-1
 60 20 l 1,10,-1
 83 291 l 1,11,-1
 126 330 l 1,12,-1
 185 265 l 1,8,-1
94 409 m 1,13,-1
 117 680 l 1,14,-1
 212 576 l 1,15,-1
 200 435 l 1,16,-1
 129 369 l 1,17,-1
 94 409 l 1,13,-1
526 291 m 1,18,-1
 503 20 l 1,19,-1
 408 124 l 1,20,-1
 420 265 l 1,21,-1
 491 330 l 1,22,-1
 526 291 l 1,18,-1
435 435 m 1,23,-1
 447 576 l 1,24,-1
 560 680 l 1,25,-1
 537 409 l 1,26,-1
 494 369 l 1,27,-1
 435 435 l 1,23,-1
EndSplineSet
EndChar

StartChar: one
Encoding: 49 49 20
Width: 560
Flags: W
LayerCount: 2
Fore
SplineSet
526 291 m 1,0,-1
 503 20 l 1,1,-1
 408 124 l 1,2,-1
 420 265 l 1,3,-1
 491 330 l 1,4,-1
 526 291 l 1,0,-1
435 435 m 1,5,-1
 447 576 l 1,6,-1
 560 680 l 1,7,-1
 537 409 l 1,8,-1
 494 369 l 1,9,-1
 435 435 l 1,5,-1
EndSplineSet
EndChar

StartChar: two
Encoding: 50 50 21
Width: 560
Flags: W
LayerCount: 2
Fore
SplineSet
543 700 m 1,0,-1
 430 595 l 1,1,-1
 234 595 l 1,2,-1
 139 700 l 1,3,-1
 543 700 l 1,0,-1
482 0 m 1,4,-1
 78 0 l 1,5,-1
 191 104 l 1,6,-1
 387 104 l 1,7,-1
 482 0 l 1,4,-1
185 265 m 1,8,-1
 173 124 l 1,9,-1
 60 20 l 1,10,-1
 83 291 l 1,11,-1
 126 330 l 1,12,-1
 185 265 l 1,8,-1
435 435 m 1,13,-1
 447 576 l 1,14,-1
 560 680 l 1,15,-1
 537 409 l 1,16,-1
 494 369 l 1,17,-1
 435 435 l 1,13,-1
426 402 m 1,18,-1
 474 350 l 1,19,-1
 417 298 l 1,20,-1
 195 298 l 1,21,-1
 148 350 l 1,22,-1
 204 402 l 1,23,-1
 426 402 l 1,18,-1
EndSplineSet
EndChar

StartChar: three
Encoding: 51 51 22
Width: 560
Flags: W
LayerCount: 2
Fore
SplineSet
543 700 m 1,0,-1
 430 595 l 1,1,-1
 234 595 l 1,2,-1
 139 700 l 1,3,-1
 543 700 l 1,0,-1
482 0 m 1,4,-1
 78 0 l 1,5,-1
 191 104 l 1,6,-1
 387 104 l 1,7,-1
 482 0 l 1,4,-1
526 291 m 1,8,-1
 503 20 l 1,9,-1
 408 124 l 1,10,-1
 420 265 l 1,11,-1
 491 330 l 1,12,-1
 526 291 l 1,8,-1
435 435 m 1,13,-1
 447 576 l 1,14,-1
 560 680 l 1,15,-1
 537 409 l 1,16,-1
 494 369 l 1,17,-1
 435 435 l 1,13,-1
426 402 m 1,18,-1
 474 350 l 1,19,-1
 417 298 l 1,20,-1
 195 298 l 1,21,-1
 148 350 l 1,22,-1
 204 402 l 1,23,-1
 426 402 l 1,18,-1
EndSplineSet
EndChar

StartChar: four
Encoding: 52 52 23
Width: 560
Flags: W
LayerCount: 2
Fore
SplineSet
94 409 m 1,0,-1
 117 680 l 1,1,-1
 212 576 l 1,2,-1
 200 435 l 1,3,-1
 129 369 l 1,4,-1
 94 409 l 1,0,-1
526 291 m 1,5,-1
 503 20 l 1,6,-1
 408 124 l 1,7,-1
 420 265 l 1,8,-1
 491 330 l 1,9,-1
 526 291 l 1,5,-1
435 435 m 1,10,-1
 447 576 l 1,11,-1
 560 680 l 1,12,-1
 537 409 l 1,13,-1
 494 369 l 1,14,-1
 435 435 l 1,10,-1
426 402 m 1,15,-1
 474 350 l 1,16,-1
 417 298 l 1,17,-1
 195 298 l 1,18,-1
 148 350 l 1,19,-1
 204 402 l 1,20,-1
 426 402 l 1,15,-1
EndSplineSet
EndChar

StartChar: five
Encoding: 53 53 24
Width: 560
Flags: W
LayerCount: 2
Fore
SplineSet
543 700 m 1,0,-1
 430 595 l 1,1,-1
 234 595 l 1,2,-1
 139 700 l 1,3,-1
 543 700 l 1,0,-1
482 0 m 1,4,-1
 78 0 l 1,5,-1
 191 104 l 1,6,-1
 387 104 l 1,7,-1
 482 0 l 1,4,-1
94 409 m 1,8,-1
 117 680 l 1,9,-1
 212 576 l 1,10,-1
 200 435 l 1,11,-1
 129 369 l 1,12,-1
 94 409 l 1,8,-1
526 291 m 1,13,-1
 503 20 l 1,14,-1
 408 124 l 1,15,-1
 420 265 l 1,16,-1
 491 330 l 1,17,-1
 526 291 l 1,13,-1
426 402 m 1,18,-1
 474 350 l 1,19,-1
 417 298 l 1,20,-1
 195 298 l 1,21,-1
 148 350 l 1,22,-1
 204 402 l 1,23,-1
 426 402 l 1,18,-1
EndSplineSet
EndChar

StartChar: six
Encoding: 54 54 25
Width: 560
Flags: W
LayerCount: 2
Fore
SplineSet
543 700 m 1,0,-1
 430 595 l 1,1,-1
 234 595 l 1,2,-1
 139 700 l 1,3,-1
 543 700 l 1,0,-1
482 0 m 1,4,-1
 78 0 l 1,5,-1
 191 104 l 1,6,-1
 387 104 l 1,7,-1
 482 0 l 1,4,-1
185 265 m 1,8,-1
 173 124 l 1,9,-1
 60 20 l 1,10,-1
 83 291 l 1,11,-1
 126 330 l 1,12,-1
 185 265 l 1,8,-1
94 409 m 1,13,-1
 117 680 l 1,14,-1
 212 576 l 1,15,-1
 200 435 l 1,16,-1
 129 369 l 1,17,-1
 94 409 l 1,13,-1
526 291 m 1,18,-1
 503 20 l 1,19,-1
 408 124 l 1,20,-1
 420 265 l 1,21,-1
 491 330 l 1,22,-1
 526 291 l 1,18,-1
426 402 m 1,23,-1
 474 350 l 1,24,-1
 417 298 l 1,25,-1
 195 298 l 1,26,-1
 148 350 l 1,27,-1
 204 402 l 1,28,-1
 426 402 l 1,23,-1
EndSplineSet
EndChar

StartChar: seven
Encoding: 55 55 26
Width: 560
Flags: W
LayerCount: 2
Fore
SplineSet
543 700 m 1,0,-1
 430 595 l 1,1,-1
 234 595 l 1,2,-1
 139 700 l 1,3,-1
 543 700 l 1,0,-1
526 291 m 1,4,-1
 503 20 l 1,5,-1
 408 124 l 1,6,-1
 420 265 l 1,7,-1
 491 330 l 1,8,-1
 526 291 l 1,4,-1
435 435 m 1,9,-1
 447 576 l 1,10,-1
 560 680 l 1,11,-1
 537 409 l 1,12,-1
 494 369 l 1,13,-1
 435 435 l 1,9,-1
EndSplineSet
EndChar

StartChar: eight
Encoding: 56 56 27
Width: 560
Flags: W
LayerCount: 2
Fore
SplineSet
543 700 m 1,0,-1
 430 595 l 1,1,-1
 234 595 l 1,2,-1
 139 700 l 1,3,-1
 543 700 l 1,0,-1
482 0 m 1,4,-1
 78 0 l 1,5,-1
 191 104 l 1,6,-1
 387 104 l 1,7,-1
 482 0 l 1,4,-1
185 265 m 1,8,-1
 173 124 l 1,9,-1
 60 20 l 1,10,-1
 83 291 l 1,11,-1
 126 330 l 1,12,-1
 185 265 l 1,8,-1
94 409 m 1,13,-1
 117 680 l 1,14,-1
 212 576 l 1,15,-1
 200 435 l 1,16,-1
 129 369 l 1,17,-1
 94 409 l 1,13,-1
526 291 m 1,18,-1
 503 20 l 1,19,-1
 408 124 l 1,20,-1
 420 265 l 1,21,-1
 491 330 l 1,22,-1
 526 291 l 1,18,-1
435 435 m 1,23,-1
 447 576 l 1,24,-1
 560 680 l 1,25,-1
 537 409 l 1,26,-1
 494 369 l 1,27,-1
 435 435 l 1,23,-1
426 402 m 1,28,-1
 474 350 l 1,29,-1
 417 298 l 1,30,-1
 195 298 l 1,31,-1
 148 350 l 1,32,-1
 204 402 l 1,33,-1
 426 402 l 1,28,-1
EndSplineSet
EndChar

StartChar: nine
Encoding: 57 57 28
Width: 560
Flags: W
LayerCount: 2
Fore
SplineSet
543 700 m 1,0,-1
 430 595 l 1,1,-1
 234 595 l 1,2,-1
 139 700 l 1,3,-1
 543 700 l 1,0,-1
482 0 m 1,4,-1
 78 0 l 1,5,-1
 191 104 l 1,6,-1
 387 104 l 1,7,-1
 482 0 l 1,4,-1
94 409 m 1,8,-1
 117 680 l 1,9,-1
 212 576 l 1,10,-1
 200 435 l 1,11,-1
 129 369 l 1,12,-1
 94 409 l 1,8,-1
526 291 m 1,13,-1
 503 20 l 1,14,-1
 408 124 l 1,15,-1
 420 265 l 1,16,-1
 491 330 l 1,17,-1
 526 291 l 1,13,-1
435 435 m 1,18,-1
 447 576 l 1,19,-1
 560 680 l 1,20,-1
 537 409 l 1,21,-1
 494 369 l 1,22,-1
 435 435 l 1,18,-1
426 402 m 1,23,-1
 474 350 l 1,24,-1
 417 298 l 1,25,-1
 195 298 l 1,26,-1
 148 350 l 1,27,-1
 204 402 l 1,28,-1
 426 402 l 1,23,-1
EndSplineSet
EndChar

StartChar: colon
Encoding: 58 58 29
Width: 244
Flags: WO
LayerCount: 2
Fore
SplineSet
70 0 m 1,0,-1
 79 104 l 1,1,-1
 184 104 l 1,2,-1
 175 0 l 1,3,-1
 70 0 l 1,0,-1
112 479 m 1,4,-1
 121 583 l 1,5,-1
 226 583 l 1,6,-1
 217 479 l 1,7,-1
 112 479 l 1,4,-1
EndSplineSet
EndChar

StartChar: less
Encoding: 60 60 31
Width: 392
Flags: W
LayerCount: 2
Fore
SplineSet
390 510 m 1,0,-1
 226 363 l 1,1,-1
 79 363 l 1,2,-1
 322 584 l 1,3,-1
 396 584 l 1,4,-1
 390 510 l 1,0,-1
355 116 m 1,5,-1
 281 116 l 1,6,-1
 76 335 l 1,7,-1
 223 335 l 1,8,-1
 362 189 l 1,9,-1
 355 116 l 1,5,-1
EndSplineSet
EndChar

StartChar: equal
Encoding: 61 61 32
Width: 517
Flags: W
LayerCount: 2
Fore
SplineSet
508 439 m 1,0,-1
 452 387 l 1,1,-1
 133 387 l 1,2,-1
 85 439 l 1,3,-1
 142 492 l 1,4,-1
 461 492 l 1,5,-1
 508 439 l 1,0,-1
493 261 m 1,6,-1
 436 208 l 1,7,-1
 117 208 l 1,8,-1
 70 261 l 1,9,-1
 126 313 l 1,10,-1
 445 313 l 1,11,-1
 493 261 l 1,6,-1
EndSplineSet
EndChar

StartChar: greater
Encoding: 62 62 33
Width: 392
Flags: W
LayerCount: 2
Fore
SplineSet
377 363 m 1,0,-1
 229 363 l 1,1,-1
 92 510 l 1,2,-1
 98 584 l 1,3,-1
 172 584 l 1,4,-1
 377 363 l 1,0,-1
374 335 m 1,5,-1
 131 116 l 1,6,-1
 57 116 l 1,7,-1
 64 189 l 1,8,-1
 226 335 l 1,9,-1
 374 335 l 1,5,-1
EndSplineSet
EndChar

StartChar: question
Encoding: 63 63 34
Width: 560
Flags: W
LayerCount: 2
Fore
SplineSet
537 409 m 1,0,-1
 494 369 l 1,1,-1
 435 435 l 1,2,-1
 447 576 l 1,3,-1
 504 628 l 1,4,-1
 551 576 l 1,5,-1
 537 409 l 1,0,-1
487 648 m 1,6,-1
 430 595 l 1,7,-1
 214 595 l 1,8,-1
 119 700 l 1,9,-1
 439 700 l 1,10,-1
 487 648 l 1,6,-1
171 104 m 1,11,-1
 58 0 l 1,12,-1
 83 291 l 1,13,-1
 126 330 l 1,14,-1
 185 265 l 1,15,-1
 171 104 l 1,11,-1
426 402 m 1,16,-1
 474 350 l 1,17,-1
 417 298 l 1,18,-1
 195 298 l 1,19,-1
 148 350 l 1,20,-1
 204 402 l 1,21,-1
 426 402 l 1,16,-1
159 -39 m 1,22,-1
 55 -39 l 1,23,-1
 45 -143 l 1,24,-1
 149 -143 l 1,25,-1
 159 -39 l 1,22,-1
EndSplineSet
EndChar

StartChar: at
Encoding: 64 64 35
Width: 677
Flags: W
LayerCount: 2
Fore
SplineSet
664 523 m 1,0,-1
 621 483 l 1,1,-1
 561 549 l 1,2,-1
 563 576 l 1,3,-1
 677 680 l 1,4,-1
 664 523 l 1,0,-1
659 700 m 1,5,-1
 546 595 l 1,6,-1
 234 595 l 1,7,-1
 187 648 l 1,8,-1
 243 700 l 1,9,-1
 659 700 l 1,5,-1
600 464 m 1,10,-1
 543 412 l 1,11,-1
 369 412 l 1,12,-1
 322 464 l 1,13,-1
 378 516 l 1,14,-1
 552 516 l 1,15,-1
 600 464 l 1,10,-1
634 187 m 1,16,-1
 538 291 l 1,17,-1
 546 379 l 1,18,-1
 618 444 l 1,19,-1
 653 405 l 1,20,-1
 634 187 l 1,16,-1
200 435 m 1,21,-1
 129 369 l 1,22,-1
 94 409 l 1,23,-1
 108 576 l 1,24,-1
 165 628 l 1,25,-1
 212 576 l 1,26,-1
 200 435 l 1,21,-1
613 167 m 1,27,-1
 361 167 l 1,28,-1
 313 219 l 1,29,-1
 370 272 l 1,30,-1
 518 272 l 1,31,-1
 613 167 l 1,27,-1
351 291 m 1,32,-1
 295 239 l 1,33,-1
 246 291 l 1,34,-1
 256 405 l 1,35,-1
 300 444 l 1,36,-1
 359 379 l 1,37,-1
 351 291 l 1,32,-1
83 291 m 1,38,-1
 126 330 l 1,39,-1
 185 265 l 1,40,-1
 173 124 l 1,41,-1
 116 72 l 1,42,-1
 69 124 l 1,43,-1
 83 291 l 1,38,-1
182 0 m 1,44,-1
 135 52 l 1,45,-1
 191 104 l 1,46,-1
 593 104 l 1,47,-1
 642 52 l 1,48,-1
 584 0 l 1,49,-1
 182 0 l 1,44,-1
EndSplineSet
EndChar

StartChar: A
Encoding: 65 65 36
Width: 560
Flags: W
LayerCount: 2
Fore
SplineSet
543 700 m 1,0,-1
 430 595 l 1,1,-1
 234 595 l 1,2,-1
 139 700 l 1,3,-1
 543 700 l 1,0,-1
185 265 m 1,4,-1
 171 104 l 1,5,-1
 58 0 l 1,6,-1
 83 291 l 1,7,-1
 126 330 l 1,8,-1
 185 265 l 1,4,-1
94 409 m 1,9,-1
 117 680 l 1,10,-1
 212 576 l 1,11,-1
 200 435 l 1,12,-1
 129 369 l 1,13,-1
 94 409 l 1,9,-1
526 291 m 1,14,-1
 501 0 l 1,15,-1
 406 104 l 1,16,-1
 420 265 l 1,17,-1
 491 330 l 1,18,-1
 526 291 l 1,14,-1
435 435 m 1,19,-1
 447 576 l 1,20,-1
 560 680 l 1,21,-1
 537 409 l 1,22,-1
 494 369 l 1,23,-1
 435 435 l 1,19,-1
426 402 m 1,24,-1
 474 350 l 1,25,-1
 417 298 l 1,26,-1
 195 298 l 1,27,-1
 148 350 l 1,28,-1
 204 402 l 1,29,-1
 426 402 l 1,24,-1
EndSplineSet
EndChar

StartChar: B
Encoding: 66 66 37
Width: 560
Flags: W
LayerCount: 2
Fore
SplineSet
185 265 m 1,0,-1
 173 124 l 1,1,-1
 60 20 l 1,2,-1
 83 291 l 1,3,-1
 126 330 l 1,4,-1
 185 265 l 1,0,-1
94 409 m 1,5,-1
 117 680 l 1,6,-1
 212 576 l 1,7,-1
 200 435 l 1,8,-1
 129 369 l 1,9,-1
 94 409 l 1,5,-1
426 402 m 1,10,-1
 474 350 l 1,11,-1
 417 298 l 1,12,-1
 195 298 l 1,13,-1
 148 350 l 1,14,-1
 204 402 l 1,15,-1
 426 402 l 1,10,-1
78 0 m 1,16,-1
 191 104 l 1,17,-1
 387 104 l 1,18,-1
 435 52 l 1,19,-1
 378 0 l 1,20,-1
 78 0 l 1,16,-1
537 409 m 1,21,-1
 494 369 l 1,22,-1
 435 435 l 1,23,-1
 447 576 l 1,24,-1
 504 628 l 1,25,-1
 551 576 l 1,26,-1
 537 409 l 1,21,-1
487 648 m 1,27,-1
 430 595 l 1,28,-1
 234 595 l 1,29,-1
 139 700 l 1,30,-1
 439 700 l 1,31,-1
 487 648 l 1,27,-1
512 124 m 1,32,-1
 455 72 l 1,33,-1
 408 124 l 1,34,-1
 420 265 l 1,35,-1
 491 330 l 1,36,-1
 526 291 l 1,37,-1
 512 124 l 1,32,-1
EndSplineSet
EndChar

StartChar: C
Encoding: 67 67 38
Width: 560
Flags: W
LayerCount: 2
Fore
SplineSet
182 0 m 1,0,-1
 135 52 l 1,1,-1
 191 104 l 1,2,-1
 406 104 l 1,3,-1
 501 0 l 1,4,-1
 182 0 l 1,0,-1
562 700 m 1,5,-1
 449 595 l 1,6,-1
 234 595 l 1,7,-1
 187 648 l 1,8,-1
 243 700 l 1,9,-1
 562 700 l 1,5,-1
200 435 m 1,10,-1
 129 369 l 1,11,-1
 94 409 l 1,12,-1
 108 576 l 1,13,-1
 165 628 l 1,14,-1
 212 576 l 1,15,-1
 200 435 l 1,10,-1
69 124 m 1,16,-1
 116 72 l 1,17,-1
 173 124 l 1,18,-1
 185 265 l 1,19,-1
 126 330 l 1,20,-1
 83 291 l 1,21,-1
 69 124 l 1,16,-1
EndSplineSet
EndChar

StartChar: D
Encoding: 68 68 39
Width: 560
Flags: W
LayerCount: 2
Fore
SplineSet
185 265 m 1,0,-1
 173 124 l 1,1,-1
 60 20 l 1,2,-1
 83 291 l 1,3,-1
 126 330 l 1,4,-1
 185 265 l 1,0,-1
94 409 m 1,5,-1
 117 680 l 1,6,-1
 212 576 l 1,7,-1
 200 435 l 1,8,-1
 129 369 l 1,9,-1
 94 409 l 1,5,-1
78 0 m 1,10,-1
 191 104 l 1,11,-1
 387 104 l 1,12,-1
 435 52 l 1,13,-1
 378 0 l 1,14,-1
 78 0 l 1,10,-1
537 409 m 1,15,-1
 494 369 l 1,16,-1
 435 435 l 1,17,-1
 447 576 l 1,18,-1
 504 628 l 1,19,-1
 551 576 l 1,20,-1
 537 409 l 1,15,-1
487 648 m 1,21,-1
 430 595 l 1,22,-1
 234 595 l 1,23,-1
 139 700 l 1,24,-1
 439 700 l 1,25,-1
 487 648 l 1,21,-1
512 124 m 1,26,-1
 455 72 l 1,27,-1
 408 124 l 1,28,-1
 420 265 l 1,29,-1
 491 330 l 1,30,-1
 526 291 l 1,31,-1
 512 124 l 1,26,-1
EndSplineSet
EndChar

StartChar: E
Encoding: 69 69 40
Width: 560
Flags: W
LayerCount: 2
Fore
SplineSet
562 700 m 1,0,-1
 449 595 l 1,1,-1
 234 595 l 1,2,-1
 139 700 l 1,3,-1
 562 700 l 1,0,-1
501 0 m 1,4,-1
 78 0 l 1,5,-1
 191 104 l 1,6,-1
 406 104 l 1,7,-1
 501 0 l 1,4,-1
185 265 m 1,8,-1
 173 124 l 1,9,-1
 60 20 l 1,10,-1
 83 291 l 1,11,-1
 126 330 l 1,12,-1
 185 265 l 1,8,-1
94 409 m 1,13,-1
 117 680 l 1,14,-1
 212 576 l 1,15,-1
 200 435 l 1,16,-1
 129 369 l 1,17,-1
 94 409 l 1,13,-1
426 402 m 1,18,-1
 474 350 l 1,19,-1
 417 298 l 1,20,-1
 195 298 l 1,21,-1
 148 350 l 1,22,-1
 204 402 l 1,23,-1
 426 402 l 1,18,-1
EndSplineSet
EndChar

StartChar: F
Encoding: 70 70 41
Width: 560
Flags: W
LayerCount: 2
Fore
SplineSet
562 700 m 1,0,-1
 449 595 l 1,1,-1
 234 595 l 1,2,-1
 139 700 l 1,3,-1
 562 700 l 1,0,-1
185 265 m 1,4,-1
 173 124 l 1,5,-1
 60 20 l 1,6,-1
 83 291 l 1,7,-1
 126 330 l 1,8,-1
 185 265 l 1,4,-1
94 409 m 1,9,-1
 117 680 l 1,10,-1
 212 576 l 1,11,-1
 200 435 l 1,12,-1
 129 369 l 1,13,-1
 94 409 l 1,9,-1
426 402 m 1,14,-1
 474 350 l 1,15,-1
 417 298 l 1,16,-1
 195 298 l 1,17,-1
 148 350 l 1,18,-1
 204 402 l 1,19,-1
 426 402 l 1,14,-1
EndSplineSet
EndChar

StartChar: G
Encoding: 71 71 42
Width: 560
Flags: W
LayerCount: 2
Fore
SplineSet
562 700 m 1,0,-1
 449 595 l 1,1,-1
 234 595 l 1,2,-1
 187 648 l 1,3,-1
 243 700 l 1,4,-1
 562 700 l 1,0,-1
475 364 m 1,5,-1
 418 312 l 1,6,-1
 300 312 l 1,7,-1
 253 364 l 1,8,-1
 309 417 l 1,9,-1
 427 417 l 1,10,-1
 475 364 l 1,5,-1
201 449 m 1,11,-1
 131 384 l 1,12,-1
 95 423 l 1,13,-1
 108 576 l 1,14,-1
 165 628 l 1,15,-1
 212 576 l 1,16,-1
 201 449 l 1,11,-1
173 124 m 1,17,-1
 116 72 l 1,18,-1
 69 124 l 1,19,-1
 85 306 l 1,20,-1
 127 345 l 1,21,-1
 186 280 l 1,22,-1
 173 124 l 1,17,-1
378 0 m 1,23,-1
 435 52 l 1,24,-1
 387 104 l 1,25,-1
 191 104 l 1,26,-1
 135 52 l 1,27,-1
 182 0 l 1,28,-1
 378 0 l 1,23,-1
512 124 m 1,29,-1
 455 72 l 1,30,-1
 408 124 l 1,31,-1
 421 280 l 1,32,-1
 492 345 l 1,33,-1
 528 306 l 1,34,-1
 512 124 l 1,29,-1
EndSplineSet
EndChar

StartChar: H
Encoding: 72 72 43
Width: 560
Flags: W
LayerCount: 2
Fore
SplineSet
185 265 m 1,0,-1
 171 104 l 1,1,-1
 58 0 l 1,2,-1
 83 291 l 1,3,-1
 126 330 l 1,4,-1
 185 265 l 1,0,-1
94 409 m 1,5,-1
 119 700 l 1,6,-1
 214 595 l 1,7,-1
 200 435 l 1,8,-1
 129 369 l 1,9,-1
 94 409 l 1,5,-1
526 291 m 1,10,-1
 501 0 l 1,11,-1
 406 104 l 1,12,-1
 420 265 l 1,13,-1
 491 330 l 1,14,-1
 526 291 l 1,10,-1
435 435 m 1,15,-1
 449 595 l 1,16,-1
 562 700 l 1,17,-1
 537 409 l 1,18,-1
 494 369 l 1,19,-1
 435 435 l 1,15,-1
426 402 m 1,20,-1
 474 350 l 1,21,-1
 417 298 l 1,22,-1
 195 298 l 1,23,-1
 148 350 l 1,24,-1
 204 402 l 1,25,-1
 426 402 l 1,20,-1
EndSplineSet
EndChar

StartChar: I
Encoding: 73 73 44
Width: 314
Flags: W
LayerCount: 2
Fore
SplineSet
234 291 m 1,0,-1
 209 0 l 1,1,-1
 114 104 l 1,2,-1
 128 265 l 1,3,-1
 199 330 l 1,4,-1
 234 291 l 1,0,-1
143 435 m 1,5,-1
 157 595 l 1,6,-1
 270 700 l 1,7,-1
 245 409 l 1,8,-1
 202 369 l 1,9,-1
 143 435 l 1,5,-1
EndSplineSet
EndChar

StartChar: J
Encoding: 74 74 45
Width: 560
Flags: W
LayerCount: 2
Fore
SplineSet
512 124 m 1,0,-1
 455 72 l 1,1,-1
 408 124 l 1,2,-1
 420 265 l 1,3,-1
 491 330 l 1,4,-1
 526 291 l 1,5,-1
 512 124 l 1,0,-1
69 124 m 1,6,-1
 116 72 l 1,7,-1
 173 124 l 1,8,-1
 181 218 l 1,9,-1
 122 284 l 1,10,-1
 79 244 l 1,11,-1
 69 124 l 1,6,-1
182 0 m 1,12,-1
 135 52 l 1,13,-1
 191 104 l 1,14,-1
 387 104 l 1,15,-1
 435 52 l 1,16,-1
 378 0 l 1,17,-1
 182 0 l 1,12,-1
435 435 m 1,18,-1
 449 595 l 1,19,-1
 562 700 l 1,20,-1
 537 409 l 1,21,-1
 494 369 l 1,22,-1
 435 435 l 1,18,-1
EndSplineSet
EndChar

StartChar: K
Encoding: 75 75 46
Width: 560
Flags: W
LayerCount: 2
Fore
SplineSet
185 265 m 1,0,-1
 171 104 l 1,1,-1
 58 0 l 1,2,-1
 83 291 l 1,3,-1
 126 330 l 1,4,-1
 185 265 l 1,0,-1
94 409 m 1,5,-1
 119 700 l 1,6,-1
 214 595 l 1,7,-1
 200 435 l 1,8,-1
 129 369 l 1,9,-1
 94 409 l 1,5,-1
526 291 m 1,10,-1
 501 0 l 1,11,-1
 406 104 l 1,12,-1
 420 265 l 1,13,-1
 491 330 l 1,14,-1
 526 291 l 1,10,-1
426 402 m 1,15,-1
 474 350 l 1,16,-1
 417 298 l 1,17,-1
 195 298 l 1,18,-1
 148 350 l 1,19,-1
 204 402 l 1,20,-1
 426 402 l 1,15,-1
445 700 m 1,21,-1
 519 700 l 1,22,-1
 513 625 l 1,23,-1
 300 430 l 1,24,-1
 226 430 l 1,25,-1
 232 505 l 1,26,-1
 445 700 l 1,21,-1
EndSplineSet
EndChar

StartChar: L
Encoding: 76 76 47
Width: 560
Flags: W
LayerCount: 2
Fore
SplineSet
501 0 m 1,0,-1
 78 0 l 1,1,-1
 191 104 l 1,2,-1
 406 104 l 1,3,-1
 501 0 l 1,0,-1
185 265 m 1,4,-1
 173 124 l 1,5,-1
 60 20 l 1,6,-1
 83 291 l 1,7,-1
 126 330 l 1,8,-1
 185 265 l 1,4,-1
94 409 m 1,9,-1
 119 700 l 1,10,-1
 214 595 l 1,11,-1
 200 435 l 1,12,-1
 129 369 l 1,13,-1
 94 409 l 1,9,-1
EndSplineSet
EndChar

StartChar: M
Encoding: 77 77 48
Width: 560
Flags: W
LayerCount: 2
Fore
SplineSet
543 700 m 1,0,-1
 430 595 l 1,1,-1
 234 595 l 1,2,-1
 139 700 l 1,3,-1
 543 700 l 1,0,-1
185 265 m 1,4,-1
 171 104 l 1,5,-1
 58 0 l 1,6,-1
 83 291 l 1,7,-1
 126 330 l 1,8,-1
 185 265 l 1,4,-1
94 409 m 1,9,-1
 117 680 l 1,10,-1
 212 576 l 1,11,-1
 200 435 l 1,12,-1
 129 369 l 1,13,-1
 94 409 l 1,9,-1
526 291 m 1,14,-1
 501 0 l 1,15,-1
 406 104 l 1,16,-1
 420 265 l 1,17,-1
 491 330 l 1,18,-1
 526 291 l 1,14,-1
435 435 m 1,19,-1
 447 576 l 1,20,-1
 560 680 l 1,21,-1
 537 409 l 1,22,-1
 494 369 l 1,23,-1
 435 435 l 1,19,-1
276 519 m 1,24,-1
 334 571 l 1,25,-1
 381 519 l 1,26,-1
 363 314 l 1,27,-1
 307 261 l 1,28,-1
 258 314 l 1,29,-1
 276 519 l 1,24,-1
EndSplineSet
EndChar

StartChar: N
Encoding: 78 78 49
Width: 560
Flags: W
LayerCount: 2
Fore
SplineSet
185 265 m 1,0,-1
 171 104 l 1,1,-1
 58 0 l 1,2,-1
 83 291 l 1,3,-1
 126 330 l 1,4,-1
 185 265 l 1,0,-1
94 409 m 1,5,-1
 119 700 l 1,6,-1
 214 595 l 1,7,-1
 200 435 l 1,8,-1
 129 369 l 1,9,-1
 94 409 l 1,5,-1
526 291 m 1,10,-1
 501 0 l 1,11,-1
 406 104 l 1,12,-1
 420 265 l 1,13,-1
 491 330 l 1,14,-1
 526 291 l 1,10,-1
435 435 m 1,15,-1
 449 595 l 1,16,-1
 562 700 l 1,17,-1
 537 409 l 1,18,-1
 494 369 l 1,19,-1
 435 435 l 1,15,-1
147 700 m 1,20,-1
 299 700 l 1,21,-1
 422 557 l 1,22,-1
 415 482 l 1,23,-1
 341 482 l 1,24,-1
 147 700 l 1,20,-1
EndSplineSet
EndChar

StartChar: O
Encoding: 79 79 50
Width: 560
Flags: W
LayerCount: 2
Fore
SplineSet
537 409 m 1,0,-1
 494 369 l 1,1,-1
 435 435 l 1,2,-1
 447 576 l 1,3,-1
 504 628 l 1,4,-1
 551 576 l 1,5,-1
 537 409 l 1,0,-1
487 648 m 1,6,-1
 430 595 l 1,7,-1
 234 595 l 1,8,-1
 187 648 l 1,9,-1
 243 700 l 1,10,-1
 439 700 l 1,11,-1
 487 648 l 1,6,-1
512 124 m 1,12,-1
 455 72 l 1,13,-1
 408 124 l 1,14,-1
 420 265 l 1,15,-1
 491 330 l 1,16,-1
 526 291 l 1,17,-1
 512 124 l 1,12,-1
200 435 m 1,18,-1
 129 369 l 1,19,-1
 94 409 l 1,20,-1
 108 576 l 1,21,-1
 165 628 l 1,22,-1
 212 576 l 1,23,-1
 200 435 l 1,18,-1
69 124 m 1,24,-1
 116 72 l 1,25,-1
 173 124 l 1,26,-1
 185 265 l 1,27,-1
 126 330 l 1,28,-1
 83 291 l 1,29,-1
 69 124 l 1,24,-1
182 0 m 1,30,-1
 135 52 l 1,31,-1
 191 104 l 1,32,-1
 387 104 l 1,33,-1
 435 52 l 1,34,-1
 378 0 l 1,35,-1
 182 0 l 1,30,-1
EndSplineSet
EndChar

StartChar: P
Encoding: 80 80 51
Width: 560
Flags: W
LayerCount: 2
Fore
SplineSet
185 265 m 1,0,-1
 171 104 l 1,1,-1
 58 0 l 1,2,-1
 83 291 l 1,3,-1
 126 330 l 1,4,-1
 185 265 l 1,0,-1
94 409 m 1,5,-1
 117 680 l 1,6,-1
 212 576 l 1,7,-1
 200 435 l 1,8,-1
 129 369 l 1,9,-1
 94 409 l 1,5,-1
426 402 m 1,10,-1
 474 350 l 1,11,-1
 417 298 l 1,12,-1
 195 298 l 1,13,-1
 148 350 l 1,14,-1
 204 402 l 1,15,-1
 426 402 l 1,10,-1
537 409 m 1,16,-1
 494 369 l 1,17,-1
 435 435 l 1,18,-1
 447 576 l 1,19,-1
 504 628 l 1,20,-1
 551 576 l 1,21,-1
 537 409 l 1,16,-1
487 648 m 1,22,-1
 430 595 l 1,23,-1
 234 595 l 1,24,-1
 139 700 l 1,25,-1
 439 700 l 1,26,-1
 487 648 l 1,22,-1
EndSplineSet
EndChar

StartChar: Q
Encoding: 81 81 52
Width: 560
Flags: W
LayerCount: 2
Fore
SplineSet
538 423 m 1,0,-1
 496 384 l 1,1,-1
 436 449 l 1,2,-1
 447 576 l 1,3,-1
 504 628 l 1,4,-1
 551 576 l 1,5,-1
 538 423 l 1,0,-1
487 648 m 1,6,-1
 430 595 l 1,7,-1
 234 595 l 1,8,-1
 187 648 l 1,9,-1
 243 700 l 1,10,-1
 439 700 l 1,11,-1
 487 648 l 1,6,-1
520 218 m 1,12,-1
 464 166 l 1,13,-1
 416 218 l 1,14,-1
 421 279 l 1,15,-1
 492 344 l 1,16,-1
 528 305 l 1,17,-1
 520 218 l 1,12,-1
201 449 m 1,18,-1
 131 384 l 1,19,-1
 95 423 l 1,20,-1
 108 576 l 1,21,-1
 165 628 l 1,22,-1
 212 576 l 1,23,-1
 201 449 l 1,18,-1
69 124 m 1,24,-1
 116 72 l 1,25,-1
 173 124 l 1,26,-1
 186 279 l 1,27,-1
 127 344 l 1,28,-1
 85 305 l 1,29,-1
 69 124 l 1,24,-1
182 0 m 1,30,-1
 135 52 l 1,31,-1
 191 104 l 1,32,-1
 293 104 l 1,33,-1
 341 52 l 1,34,-1
 284 0 l 1,35,-1
 182 0 l 1,30,-1
314 124 m 1,36,-1
 320 199 l 1,37,-1
 395 199 l 1,38,-1
 508 75 l 1,39,-1
 501 0 l 1,40,-1
 427 0 l 1,41,-1
 314 124 l 1,36,-1
EndSplineSet
EndChar

StartChar: R
Encoding: 82 82 53
Width: 560
Flags: W
LayerCount: 2
Fore
SplineSet
226 200 m 1,0,-1
 233 274 l 1,1,-1
 308 274 l 1,2,-1
 491 75 l 1,3,-1
 484 0 l 1,4,-1
 409 0 l 1,5,-1
 226 200 l 1,0,-1
185 265 m 1,6,-1
 171 104 l 1,7,-1
 58 0 l 1,8,-1
 83 291 l 1,9,-1
 126 330 l 1,10,-1
 185 265 l 1,6,-1
94 409 m 1,11,-1
 117 680 l 1,12,-1
 212 576 l 1,13,-1
 200 435 l 1,14,-1
 129 369 l 1,15,-1
 94 409 l 1,11,-1
426 402 m 1,16,-1
 474 350 l 1,17,-1
 417 298 l 1,18,-1
 195 298 l 1,19,-1
 148 350 l 1,20,-1
 204 402 l 1,21,-1
 426 402 l 1,16,-1
537 409 m 1,22,-1
 494 369 l 1,23,-1
 435 435 l 1,24,-1
 447 576 l 1,25,-1
 504 628 l 1,26,-1
 551 576 l 1,27,-1
 537 409 l 1,22,-1
487 648 m 1,28,-1
 430 595 l 1,29,-1
 234 595 l 1,30,-1
 139 700 l 1,31,-1
 439 700 l 1,32,-1
 487 648 l 1,28,-1
EndSplineSet
EndChar

StartChar: S
Encoding: 83 83 54
Width: 560
Flags: W
LayerCount: 2
Fore
SplineSet
558 648 m 1,0,-1
 501 595 l 1,1,-1
 234 595 l 1,2,-1
 187 648 l 1,3,-1
 243 700 l 1,4,-1
 510 700 l 1,5,-1
 558 648 l 1,0,-1
512 124 m 1,6,-1
 455 72 l 1,7,-1
 408 124 l 1,8,-1
 420 265 l 1,9,-1
 491 330 l 1,10,-1
 526 291 l 1,11,-1
 512 124 l 1,6,-1
200 435 m 1,12,-1
 129 369 l 1,13,-1
 94 409 l 1,14,-1
 108 576 l 1,15,-1
 165 628 l 1,16,-1
 212 576 l 1,17,-1
 200 435 l 1,12,-1
110 0 m 1,18,-1
 63 52 l 1,19,-1
 119 104 l 1,20,-1
 387 104 l 1,21,-1
 435 52 l 1,22,-1
 378 0 l 1,23,-1
 110 0 l 1,18,-1
426 402 m 1,24,-1
 474 350 l 1,25,-1
 417 298 l 1,26,-1
 195 298 l 1,27,-1
 148 350 l 1,28,-1
 204 402 l 1,29,-1
 426 402 l 1,24,-1
EndSplineSet
EndChar

StartChar: T
Encoding: 84 84 55
Width: 560
Flags: W
LayerCount: 2
Fore
SplineSet
336 48 m 1,0,-1
 280 -4 l 1,1,-1
 232 48 l 1,2,-1
 251 265 l 1,3,-1
 322 330 l 1,4,-1
 357 291 l 1,5,-1
 336 48 l 1,0,-1
368 409 m 1,6,-1
 325 369 l 1,7,-1
 266 435 l 1,8,-1
 273 515 l 1,9,-1
 330 567 l 1,10,-1
 377 515 l 1,11,-1
 368 409 l 1,6,-1
582 648 m 1,12,-1
 524 595 l 1,13,-1
 139 595 l 1,14,-1
 92 648 l 1,15,-1
 148 700 l 1,16,-1
 533 700 l 1,17,-1
 582 648 l 1,12,-1
EndSplineSet
EndChar

StartChar: U
Encoding: 85 85 56
Width: 560
Flags: W
LayerCount: 2
Fore
SplineSet
512 124 m 1,0,-1
 455 72 l 1,1,-1
 408 124 l 1,2,-1
 420 265 l 1,3,-1
 491 330 l 1,4,-1
 526 291 l 1,5,-1
 512 124 l 1,0,-1
69 124 m 1,6,-1
 116 72 l 1,7,-1
 173 124 l 1,8,-1
 185 265 l 1,9,-1
 126 330 l 1,10,-1
 83 291 l 1,11,-1
 69 124 l 1,6,-1
182 0 m 1,12,-1
 135 52 l 1,13,-1
 191 104 l 1,14,-1
 387 104 l 1,15,-1
 435 52 l 1,16,-1
 378 0 l 1,17,-1
 182 0 l 1,12,-1
537 409 m 1,18,-1
 494 369 l 1,19,-1
 435 435 l 1,20,-1
 449 595 l 1,21,-1
 562 700 l 1,22,-1
 537 409 l 1,18,-1
119 700 m 1,23,-1
 214 595 l 1,24,-1
 200 435 l 1,25,-1
 129 369 l 1,26,-1
 94 409 l 1,27,-1
 119 700 l 1,23,-1
EndSplineSet
EndChar

StartChar: V
Encoding: 86 86 57
Width: 537
Flags: W
LayerCount: 2
Fore
SplineSet
538 419 m 1,0,-1
 495 380 l 1,1,-1
 436 446 l 1,2,-1
 449 595 l 1,3,-1
 562 700 l 1,4,-1
 538 419 l 1,0,-1
201 446 m 1,5,-1
 130 380 l 1,6,-1
 95 419 l 1,7,-1
 119 700 l 1,8,-1
 214 595 l 1,9,-1
 201 446 l 1,5,-1
492 341 m 1,10,-1
 477 249 l 1,11,-1
 273 50 l 1,12,-1
 199 50 l 1,13,-1
 206 124 l 1,14,-1
 408 323 l 1,15,-1
 492 341 l 1,10,-1
166 50 m 1,16,-1
 110 -3 l 1,17,-1
 62 50 l 1,18,-1
 84 302 l 1,19,-1
 127 341 l 1,20,-1
 186 275 l 1,21,-1
 166 50 l 1,16,-1
EndSplineSet
EndChar

StartChar: W
Encoding: 87 87 58
Width: 560
Flags: W
LayerCount: 2
Fore
SplineSet
537 409 m 1,0,-1
 494 369 l 1,1,-1
 435 435 l 1,2,-1
 449 595 l 1,3,-1
 562 700 l 1,4,-1
 537 409 l 1,0,-1
200 435 m 1,5,-1
 129 369 l 1,6,-1
 94 409 l 1,7,-1
 119 700 l 1,8,-1
 214 595 l 1,9,-1
 200 435 l 1,5,-1
503 20 m 1,10,-1
 408 124 l 1,11,-1
 420 265 l 1,12,-1
 491 330 l 1,13,-1
 526 291 l 1,14,-1
 503 20 l 1,10,-1
352 180 m 1,15,-1
 295 128 l 1,16,-1
 247 180 l 1,17,-1
 265 386 l 1,18,-1
 322 439 l 1,19,-1
 370 386 l 1,20,-1
 352 180 l 1,15,-1
482 0 m 1,21,-1
 78 0 l 1,22,-1
 191 104 l 1,23,-1
 387 104 l 1,24,-1
 482 0 l 1,21,-1
173 124 m 1,25,-1
 60 20 l 1,26,-1
 83 291 l 1,27,-1
 126 330 l 1,28,-1
 185 265 l 1,29,-1
 173 124 l 1,25,-1
EndSplineSet
EndChar

StartChar: X
Encoding: 88 88 59
Width: 537
Flags: W
LayerCount: 2
Fore
SplineSet
332 369 m 1,0,-1
 342 484 l 1,1,-1
 502 700 l 1,2,-1
 562 700 l 1,3,-1
 553 598 l 1,4,-1
 385 369 l 1,5,-1
 332 369 l 1,0,-1
240 369 m 1,6,-1
 110 598 l 1,7,-1
 119 700 l 1,8,-1
 180 700 l 1,9,-1
 303 484 l 1,10,-1
 293 369 l 1,11,-1
 240 369 l 1,6,-1
290 330 m 1,12,-1
 280 215 l 1,13,-1
 120 0 l 1,14,-1
 58 0 l 1,15,-1
 67 102 l 1,16,-1
 237 330 l 1,17,-1
 290 330 l 1,12,-1
382 330 m 1,18,-1
 510 102 l 1,19,-1
 501 0 l 1,20,-1
 441 0 l 1,21,-1
 319 216 l 1,22,-1
 329 330 l 1,23,-1
 382 330 l 1,18,-1
EndSplineSet
EndChar

StartChar: Y
Encoding: 89 89 60
Width: 560
Flags: W
LayerCount: 2
Fore
SplineSet
537 409 m 1,0,-1
 494 369 l 1,1,-1
 435 435 l 1,2,-1
 449 595 l 1,3,-1
 562 700 l 1,4,-1
 537 409 l 1,0,-1
94 409 m 1,5,-1
 129 369 l 1,6,-1
 200 435 l 1,7,-1
 214 595 l 1,8,-1
 119 700 l 1,9,-1
 94 409 l 1,5,-1
149 0 m 1,10,-1
 102 52 l 1,11,-1
 158 104 l 1,12,-1
 387 104 l 1,13,-1
 435 52 l 1,14,-1
 378 0 l 1,15,-1
 149 0 l 1,10,-1
512 124 m 1,16,-1
 455 72 l 1,17,-1
 408 124 l 1,18,-1
 420 265 l 1,19,-1
 491 330 l 1,20,-1
 526 291 l 1,21,-1
 512 124 l 1,16,-1
426 402 m 1,22,-1
 474 350 l 1,23,-1
 417 298 l 1,24,-1
 195 298 l 1,25,-1
 148 350 l 1,26,-1
 204 402 l 1,27,-1
 426 402 l 1,22,-1
EndSplineSet
EndChar

StartChar: Z
Encoding: 90 90 61
Width: 560
Flags: W
LayerCount: 2
Fore
SplineSet
558 648 m 1,0,-1
 501 595 l 1,1,-1
 214 595 l 1,2,-1
 119 700 l 1,3,-1
 510 700 l 1,4,-1
 558 648 l 1,0,-1
492 494 m 1,5,-1
 398 370 l 1,6,-1
 304 360 l 1,7,-1
 305 415 l 1,8,-1
 425 571 l 1,9,-1
 499 571 l 1,10,-1
 492 494 l 1,5,-1
295 254 m 1,11,-1
 199 128 l 1,12,-1
 121 128 l 1,13,-1
 127 200 l 1,14,-1
 235 340 l 1,15,-1
 291 345 l 1,16,-1
 295 254 l 1,11,-1
489 0 m 1,17,-1
 110 0 l 1,18,-1
 63 52 l 1,19,-1
 119 104 l 1,20,-1
 394 104 l 1,21,-1
 489 0 l 1,17,-1
EndSplineSet
EndChar

StartChar: bracketleft
Encoding: 91 91 62
Width: 345
Flags: W
LayerCount: 2
Fore
SplineSet
383 700 m 1,0,-1
 269 595 l 1,1,-1
 223 595 l 1,2,-1
 127 700 l 1,3,-1
 383 700 l 1,0,-1
322 0 m 1,4,-1
 66 0 l 1,5,-1
 180 104 l 1,6,-1
 226 104 l 1,7,-1
 322 0 l 1,4,-1
174 265 m 1,8,-1
 162 124 l 1,9,-1
 49 20 l 1,10,-1
 72 291 l 1,11,-1
 115 330 l 1,12,-1
 174 265 l 1,8,-1
83 409 m 1,13,-1
 106 680 l 1,14,-1
 201 576 l 1,15,-1
 189 435 l 1,16,-1
 118 369 l 1,17,-1
 83 409 l 1,13,-1
EndSplineSet
EndChar

StartChar: backslash
Encoding: 92 92 63
Width: 540
Flags: W
LayerCount: 2
Fore
SplineSet
340 473 m 1,0,-1
 308 384 l 1,1,-1
 256 398 l 1,2,-1
 87 737 l 1,3,-1
 227 700 l 1,4,-1
 340 473 l 1,0,-1
524 101 m 1,5,-1
 473 -42 l 1,6,-1
 306 296 l 1,7,-1
 325 349 l 1,8,-1
 413 326 l 1,9,-1
 524 101 l 1,5,-1
EndSplineSet
EndChar

StartChar: bracketright
Encoding: 93 93 64
Width: 345
Flags: W
LayerCount: 2
Fore
SplineSet
340 700 m 1,0,-1
 227 595 l 1,1,-1
 180 595 l 1,2,-1
 84 700 l 1,3,-1
 340 700 l 1,0,-1
335 409 m 1,4,-1
 292 369 l 1,5,-1
 232 435 l 1,6,-1
 244 576 l 1,7,-1
 358 680 l 1,8,-1
 335 409 l 1,4,-1
301 20 m 1,9,-1
 205 124 l 1,10,-1
 217 265 l 1,11,-1
 289 330 l 1,12,-1
 324 291 l 1,13,-1
 301 20 l 1,9,-1
279 0 m 1,14,-1
 23 0 l 1,15,-1
 137 104 l 1,16,-1
 184 104 l 1,17,-1
 279 0 l 1,14,-1
EndSplineSet
EndChar

StartChar: asciicircum
Encoding: 94 94 65
Width: 510
Flags: W
LayerCount: 2
Fore
SplineSet
427 431 m 1,0,-1
 316 552 l 1,1,-1
 329 700 l 1,2,-1
 507 505 l 1,3,-1
 501 431 l 1,4,-1
 427 431 l 1,0,-1
85 431 m 1,5,-1
 91 505 l 1,6,-1
 302 700 l 1,7,-1
 289 552 l 1,8,-1
 158 431 l 1,9,-1
 85 431 l 1,5,-1
EndSplineSet
EndChar

StartChar: underscore
Encoding: 95 95 66
Width: 518
Flags: W
LayerCount: 2
Fore
SplineSet
506 -135 m 1,0,-1
 450 -187 l 1,1,-1
 36 -187 l 1,2,-1
 -12 -135 l 1,3,-1
 45 -83 l 1,4,-1
 459 -83 l 1,5,-1
 506 -135 l 1,0,-1
EndSplineSet
EndChar

StartChar: grave
Encoding: 96 96 67
Width: 266
Flags: W
LayerCount: 2
Fore
SplineSet
270 581 m 1,0,-1
 245 510 l 1,1,-1
 175 529 l 1,2,-1
 106 670 l 1,3,-1
 199 723 l 1,4,-1
 270 581 l 1,0,-1
EndSplineSet
EndChar

StartChar: a
Encoding: 97 97 68
Width: 560
Flags: W
LayerCount: 2
Fore
SplineSet
543 700 m 1,0,-1
 430 595 l 1,1,-1
 234 595 l 1,2,-1
 139 700 l 1,3,-1
 543 700 l 1,0,-1
185 265 m 1,4,-1
 171 104 l 1,5,-1
 58 0 l 1,6,-1
 83 291 l 1,7,-1
 126 330 l 1,8,-1
 185 265 l 1,4,-1
94 409 m 1,9,-1
 117 680 l 1,10,-1
 212 576 l 1,11,-1
 200 435 l 1,12,-1
 129 369 l 1,13,-1
 94 409 l 1,9,-1
526 291 m 1,14,-1
 501 0 l 1,15,-1
 406 104 l 1,16,-1
 420 265 l 1,17,-1
 491 330 l 1,18,-1
 526 291 l 1,14,-1
435 435 m 1,19,-1
 447 576 l 1,20,-1
 560 680 l 1,21,-1
 537 409 l 1,22,-1
 494 369 l 1,23,-1
 435 435 l 1,19,-1
426 402 m 1,24,-1
 474 350 l 1,25,-1
 417 298 l 1,26,-1
 195 298 l 1,27,-1
 148 350 l 1,28,-1
 204 402 l 1,29,-1
 426 402 l 1,24,-1
EndSplineSet
EndChar

StartChar: b
Encoding: 98 98 69
Width: 560
Flags: W
LayerCount: 2
Fore
SplineSet
185 265 m 1,0,-1
 173 124 l 1,1,-1
 60 20 l 1,2,-1
 83 291 l 1,3,-1
 126 330 l 1,4,-1
 185 265 l 1,0,-1
94 409 m 1,5,-1
 117 680 l 1,6,-1
 212 576 l 1,7,-1
 200 435 l 1,8,-1
 129 369 l 1,9,-1
 94 409 l 1,5,-1
426 402 m 1,10,-1
 474 350 l 1,11,-1
 417 298 l 1,12,-1
 195 298 l 1,13,-1
 148 350 l 1,14,-1
 204 402 l 1,15,-1
 426 402 l 1,10,-1
78 0 m 1,16,-1
 191 104 l 1,17,-1
 387 104 l 1,18,-1
 435 52 l 1,19,-1
 378 0 l 1,20,-1
 78 0 l 1,16,-1
537 409 m 1,21,-1
 494 369 l 1,22,-1
 435 435 l 1,23,-1
 447 576 l 1,24,-1
 504 628 l 1,25,-1
 551 576 l 1,26,-1
 537 409 l 1,21,-1
487 648 m 1,27,-1
 430 595 l 1,28,-1
 234 595 l 1,29,-1
 139 700 l 1,30,-1
 439 700 l 1,31,-1
 487 648 l 1,27,-1
512 124 m 1,32,-1
 455 72 l 1,33,-1
 408 124 l 1,34,-1
 420 265 l 1,35,-1
 491 330 l 1,36,-1
 526 291 l 1,37,-1
 512 124 l 1,32,-1
EndSplineSet
EndChar

StartChar: c
Encoding: 99 99 70
Width: 560
Flags: W
LayerCount: 2
Fore
SplineSet
182 0 m 1,0,-1
 135 52 l 1,1,-1
 191 104 l 1,2,-1
 406 104 l 1,3,-1
 501 0 l 1,4,-1
 182 0 l 1,0,-1
562 700 m 1,5,-1
 449 595 l 1,6,-1
 234 595 l 1,7,-1
 187 648 l 1,8,-1
 243 700 l 1,9,-1
 562 700 l 1,5,-1
200 435 m 1,10,-1
 129 369 l 1,11,-1
 94 409 l 1,12,-1
 108 576 l 1,13,-1
 165 628 l 1,14,-1
 212 576 l 1,15,-1
 200 435 l 1,10,-1
69 124 m 1,16,-1
 116 72 l 1,17,-1
 173 124 l 1,18,-1
 185 265 l 1,19,-1
 126 330 l 1,20,-1
 83 291 l 1,21,-1
 69 124 l 1,16,-1
EndSplineSet
EndChar

StartChar: d
Encoding: 100 100 71
Width: 560
Flags: W
LayerCount: 2
Fore
SplineSet
185 265 m 1,0,-1
 173 124 l 1,1,-1
 60 20 l 1,2,-1
 83 291 l 1,3,-1
 126 330 l 1,4,-1
 185 265 l 1,0,-1
94 409 m 1,5,-1
 117 680 l 1,6,-1
 212 576 l 1,7,-1
 200 435 l 1,8,-1
 129 369 l 1,9,-1
 94 409 l 1,5,-1
78 0 m 1,10,-1
 191 104 l 1,11,-1
 387 104 l 1,12,-1
 435 52 l 1,13,-1
 378 0 l 1,14,-1
 78 0 l 1,10,-1
537 409 m 1,15,-1
 494 369 l 1,16,-1
 435 435 l 1,17,-1
 447 576 l 1,18,-1
 504 628 l 1,19,-1
 551 576 l 1,20,-1
 537 409 l 1,15,-1
487 648 m 1,21,-1
 430 595 l 1,22,-1
 234 595 l 1,23,-1
 139 700 l 1,24,-1
 439 700 l 1,25,-1
 487 648 l 1,21,-1
512 124 m 1,26,-1
 455 72 l 1,27,-1
 408 124 l 1,28,-1
 420 265 l 1,29,-1
 491 330 l 1,30,-1
 526 291 l 1,31,-1
 512 124 l 1,26,-1
EndSplineSet
EndChar

StartChar: e
Encoding: 101 101 72
Width: 560
Flags: W
LayerCount: 2
Fore
SplineSet
562 700 m 1,0,-1
 449 595 l 1,1,-1
 234 595 l 1,2,-1
 139 700 l 1,3,-1
 562 700 l 1,0,-1
501 0 m 1,4,-1
 78 0 l 1,5,-1
 191 104 l 1,6,-1
 406 104 l 1,7,-1
 501 0 l 1,4,-1
185 265 m 1,8,-1
 173 124 l 1,9,-1
 60 20 l 1,10,-1
 83 291 l 1,11,-1
 126 330 l 1,12,-1
 185 265 l 1,8,-1
94 409 m 1,13,-1
 117 680 l 1,14,-1
 212 576 l 1,15,-1
 200 435 l 1,16,-1
 129 369 l 1,17,-1
 94 409 l 1,13,-1
426 402 m 1,18,-1
 474 350 l 1,19,-1
 417 298 l 1,20,-1
 195 298 l 1,21,-1
 148 350 l 1,22,-1
 204 402 l 1,23,-1
 426 402 l 1,18,-1
EndSplineSet
EndChar

StartChar: f
Encoding: 102 102 73
Width: 560
Flags: W
LayerCount: 2
Fore
SplineSet
562 700 m 1,0,-1
 449 595 l 1,1,-1
 234 595 l 1,2,-1
 139 700 l 1,3,-1
 562 700 l 1,0,-1
185 265 m 1,4,-1
 173 124 l 1,5,-1
 60 20 l 1,6,-1
 83 291 l 1,7,-1
 126 330 l 1,8,-1
 185 265 l 1,4,-1
94 409 m 1,9,-1
 117 680 l 1,10,-1
 212 576 l 1,11,-1
 200 435 l 1,12,-1
 129 369 l 1,13,-1
 94 409 l 1,9,-1
426 402 m 1,14,-1
 474 350 l 1,15,-1
 417 298 l 1,16,-1
 195 298 l 1,17,-1
 148 350 l 1,18,-1
 204 402 l 1,19,-1
 426 402 l 1,14,-1
EndSplineSet
EndChar

StartChar: g
Encoding: 103 103 74
Width: 560
Flags: W
LayerCount: 2
Fore
SplineSet
562 700 m 1,0,-1
 449 595 l 1,1,-1
 234 595 l 1,2,-1
 187 648 l 1,3,-1
 243 700 l 1,4,-1
 562 700 l 1,0,-1
475 364 m 1,5,-1
 418 312 l 1,6,-1
 300 312 l 1,7,-1
 253 364 l 1,8,-1
 309 417 l 1,9,-1
 427 417 l 1,10,-1
 475 364 l 1,5,-1
201 449 m 1,11,-1
 131 384 l 1,12,-1
 95 423 l 1,13,-1
 108 576 l 1,14,-1
 165 628 l 1,15,-1
 212 576 l 1,16,-1
 201 449 l 1,11,-1
173 124 m 1,17,-1
 116 72 l 1,18,-1
 69 124 l 1,19,-1
 85 306 l 1,20,-1
 127 345 l 1,21,-1
 186 280 l 1,22,-1
 173 124 l 1,17,-1
378 0 m 1,23,-1
 435 52 l 1,24,-1
 387 104 l 1,25,-1
 191 104 l 1,26,-1
 135 52 l 1,27,-1
 182 0 l 1,28,-1
 378 0 l 1,23,-1
512 124 m 1,29,-1
 455 72 l 1,30,-1
 408 124 l 1,31,-1
 421 280 l 1,32,-1
 492 345 l 1,33,-1
 528 306 l 1,34,-1
 512 124 l 1,29,-1
EndSplineSet
EndChar

StartChar: h
Encoding: 104 104 75
Width: 560
Flags: W
LayerCount: 2
Fore
SplineSet
185 265 m 1,0,-1
 171 104 l 1,1,-1
 58 0 l 1,2,-1
 83 291 l 1,3,-1
 126 330 l 1,4,-1
 185 265 l 1,0,-1
94 409 m 1,5,-1
 119 700 l 1,6,-1
 214 595 l 1,7,-1
 200 435 l 1,8,-1
 129 369 l 1,9,-1
 94 409 l 1,5,-1
526 291 m 1,10,-1
 501 0 l 1,11,-1
 406 104 l 1,12,-1
 420 265 l 1,13,-1
 491 330 l 1,14,-1
 526 291 l 1,10,-1
435 435 m 1,15,-1
 449 595 l 1,16,-1
 562 700 l 1,17,-1
 537 409 l 1,18,-1
 494 369 l 1,19,-1
 435 435 l 1,15,-1
426 402 m 1,20,-1
 474 350 l 1,21,-1
 417 298 l 1,22,-1
 195 298 l 1,23,-1
 148 350 l 1,24,-1
 204 402 l 1,25,-1
 426 402 l 1,20,-1
EndSplineSet
EndChar

StartChar: i
Encoding: 105 105 76
Width: 314
Flags: W
LayerCount: 2
Fore
SplineSet
234 291 m 1,0,-1
 209 0 l 1,1,-1
 114 104 l 1,2,-1
 128 265 l 1,3,-1
 199 330 l 1,4,-1
 234 291 l 1,0,-1
143 435 m 1,5,-1
 157 595 l 1,6,-1
 270 700 l 1,7,-1
 245 409 l 1,8,-1
 202 369 l 1,9,-1
 143 435 l 1,5,-1
EndSplineSet
EndChar

StartChar: j
Encoding: 106 106 77
Width: 560
Flags: W
LayerCount: 2
Fore
SplineSet
512 124 m 1,0,-1
 455 72 l 1,1,-1
 408 124 l 1,2,-1
 420 265 l 1,3,-1
 491 330 l 1,4,-1
 526 291 l 1,5,-1
 512 124 l 1,0,-1
69 124 m 1,6,-1
 116 72 l 1,7,-1
 173 124 l 1,8,-1
 181 218 l 1,9,-1
 122 284 l 1,10,-1
 79 244 l 1,11,-1
 69 124 l 1,6,-1
182 0 m 1,12,-1
 135 52 l 1,13,-1
 191 104 l 1,14,-1
 387 104 l 1,15,-1
 435 52 l 1,16,-1
 378 0 l 1,17,-1
 182 0 l 1,12,-1
435 435 m 1,18,-1
 449 595 l 1,19,-1
 562 700 l 1,20,-1
 537 409 l 1,21,-1
 494 369 l 1,22,-1
 435 435 l 1,18,-1
EndSplineSet
EndChar

StartChar: k
Encoding: 107 107 78
Width: 560
Flags: W
LayerCount: 2
Fore
SplineSet
185 265 m 1,0,-1
 171 104 l 1,1,-1
 58 0 l 1,2,-1
 83 291 l 1,3,-1
 126 330 l 1,4,-1
 185 265 l 1,0,-1
94 409 m 1,5,-1
 119 700 l 1,6,-1
 214 595 l 1,7,-1
 200 435 l 1,8,-1
 129 369 l 1,9,-1
 94 409 l 1,5,-1
526 291 m 1,10,-1
 501 0 l 1,11,-1
 406 104 l 1,12,-1
 420 265 l 1,13,-1
 491 330 l 1,14,-1
 526 291 l 1,10,-1
426 402 m 1,15,-1
 474 350 l 1,16,-1
 417 298 l 1,17,-1
 195 298 l 1,18,-1
 148 350 l 1,19,-1
 204 402 l 1,20,-1
 426 402 l 1,15,-1
445 700 m 1,21,-1
 519 700 l 1,22,-1
 513 625 l 1,23,-1
 300 430 l 1,24,-1
 226 430 l 1,25,-1
 232 505 l 1,26,-1
 445 700 l 1,21,-1
EndSplineSet
EndChar

StartChar: l
Encoding: 108 108 79
Width: 560
Flags: W
LayerCount: 2
Fore
SplineSet
501 0 m 1,0,-1
 78 0 l 1,1,-1
 191 104 l 1,2,-1
 406 104 l 1,3,-1
 501 0 l 1,0,-1
185 265 m 1,4,-1
 173 124 l 1,5,-1
 60 20 l 1,6,-1
 83 291 l 1,7,-1
 126 330 l 1,8,-1
 185 265 l 1,4,-1
94 409 m 1,9,-1
 119 700 l 1,10,-1
 214 595 l 1,11,-1
 200 435 l 1,12,-1
 129 369 l 1,13,-1
 94 409 l 1,9,-1
EndSplineSet
EndChar

StartChar: m
Encoding: 109 109 80
Width: 560
Flags: W
LayerCount: 2
Fore
SplineSet
543 700 m 1,0,-1
 430 595 l 1,1,-1
 234 595 l 1,2,-1
 139 700 l 1,3,-1
 543 700 l 1,0,-1
185 265 m 1,4,-1
 171 104 l 1,5,-1
 58 0 l 1,6,-1
 83 291 l 1,7,-1
 126 330 l 1,8,-1
 185 265 l 1,4,-1
94 409 m 1,9,-1
 117 680 l 1,10,-1
 212 576 l 1,11,-1
 200 435 l 1,12,-1
 129 369 l 1,13,-1
 94 409 l 1,9,-1
526 291 m 1,14,-1
 501 0 l 1,15,-1
 406 104 l 1,16,-1
 420 265 l 1,17,-1
 491 330 l 1,18,-1
 526 291 l 1,14,-1
435 435 m 1,19,-1
 447 576 l 1,20,-1
 560 680 l 1,21,-1
 537 409 l 1,22,-1
 494 369 l 1,23,-1
 435 435 l 1,19,-1
276 519 m 1,24,-1
 334 571 l 1,25,-1
 381 519 l 1,26,-1
 363 314 l 1,27,-1
 307 261 l 1,28,-1
 258 314 l 1,29,-1
 276 519 l 1,24,-1
EndSplineSet
EndChar

StartChar: n
Encoding: 110 110 81
Width: 560
Flags: W
LayerCount: 2
Fore
SplineSet
185 265 m 1,0,-1
 171 104 l 1,1,-1
 58 0 l 1,2,-1
 83 291 l 1,3,-1
 126 330 l 1,4,-1
 185 265 l 1,0,-1
94 409 m 1,5,-1
 119 700 l 1,6,-1
 214 595 l 1,7,-1
 200 435 l 1,8,-1
 129 369 l 1,9,-1
 94 409 l 1,5,-1
526 291 m 1,10,-1
 501 0 l 1,11,-1
 406 104 l 1,12,-1
 420 265 l 1,13,-1
 491 330 l 1,14,-1
 526 291 l 1,10,-1
435 435 m 1,15,-1
 449 595 l 1,16,-1
 562 700 l 1,17,-1
 537 409 l 1,18,-1
 494 369 l 1,19,-1
 435 435 l 1,15,-1
147 700 m 1,20,-1
 299 700 l 1,21,-1
 422 557 l 1,22,-1
 415 482 l 1,23,-1
 341 482 l 1,24,-1
 147 700 l 1,20,-1
EndSplineSet
EndChar

StartChar: o
Encoding: 111 111 82
Width: 560
Flags: W
LayerCount: 2
Fore
SplineSet
537 409 m 1,0,-1
 494 369 l 1,1,-1
 435 435 l 1,2,-1
 447 576 l 1,3,-1
 504 628 l 1,4,-1
 551 576 l 1,5,-1
 537 409 l 1,0,-1
487 648 m 1,6,-1
 430 595 l 1,7,-1
 234 595 l 1,8,-1
 187 648 l 1,9,-1
 243 700 l 1,10,-1
 439 700 l 1,11,-1
 487 648 l 1,6,-1
512 124 m 1,12,-1
 455 72 l 1,13,-1
 408 124 l 1,14,-1
 420 265 l 1,15,-1
 491 330 l 1,16,-1
 526 291 l 1,17,-1
 512 124 l 1,12,-1
200 435 m 1,18,-1
 129 369 l 1,19,-1
 94 409 l 1,20,-1
 108 576 l 1,21,-1
 165 628 l 1,22,-1
 212 576 l 1,23,-1
 200 435 l 1,18,-1
69 124 m 1,24,-1
 116 72 l 1,25,-1
 173 124 l 1,26,-1
 185 265 l 1,27,-1
 126 330 l 1,28,-1
 83 291 l 1,29,-1
 69 124 l 1,24,-1
182 0 m 1,30,-1
 135 52 l 1,31,-1
 191 104 l 1,32,-1
 387 104 l 1,33,-1
 435 52 l 1,34,-1
 378 0 l 1,35,-1
 182 0 l 1,30,-1
EndSplineSet
EndChar

StartChar: p
Encoding: 112 112 83
Width: 560
Flags: W
LayerCount: 2
Fore
SplineSet
185 265 m 1,0,-1
 171 104 l 1,1,-1
 58 0 l 1,2,-1
 83 291 l 1,3,-1
 126 330 l 1,4,-1
 185 265 l 1,0,-1
94 409 m 1,5,-1
 117 680 l 1,6,-1
 212 576 l 1,7,-1
 200 435 l 1,8,-1
 129 369 l 1,9,-1
 94 409 l 1,5,-1
426 402 m 1,10,-1
 474 350 l 1,11,-1
 417 298 l 1,12,-1
 195 298 l 1,13,-1
 148 350 l 1,14,-1
 204 402 l 1,15,-1
 426 402 l 1,10,-1
537 409 m 1,16,-1
 494 369 l 1,17,-1
 435 435 l 1,18,-1
 447 576 l 1,19,-1
 504 628 l 1,20,-1
 551 576 l 1,21,-1
 537 409 l 1,16,-1
487 648 m 1,22,-1
 430 595 l 1,23,-1
 234 595 l 1,24,-1
 139 700 l 1,25,-1
 439 700 l 1,26,-1
 487 648 l 1,22,-1
EndSplineSet
EndChar

StartChar: q
Encoding: 113 113 84
Width: 560
Flags: W
LayerCount: 2
Fore
SplineSet
538 423 m 1,0,-1
 496 384 l 1,1,-1
 436 449 l 1,2,-1
 447 576 l 1,3,-1
 504 628 l 1,4,-1
 551 576 l 1,5,-1
 538 423 l 1,0,-1
487 648 m 1,6,-1
 430 595 l 1,7,-1
 234 595 l 1,8,-1
 187 648 l 1,9,-1
 243 700 l 1,10,-1
 439 700 l 1,11,-1
 487 648 l 1,6,-1
520 218 m 1,12,-1
 464 166 l 1,13,-1
 416 218 l 1,14,-1
 421 279 l 1,15,-1
 492 344 l 1,16,-1
 528 305 l 1,17,-1
 520 218 l 1,12,-1
201 449 m 1,18,-1
 131 384 l 1,19,-1
 95 423 l 1,20,-1
 108 576 l 1,21,-1
 165 628 l 1,22,-1
 212 576 l 1,23,-1
 201 449 l 1,18,-1
69 124 m 1,24,-1
 116 72 l 1,25,-1
 173 124 l 1,26,-1
 186 279 l 1,27,-1
 127 344 l 1,28,-1
 85 305 l 1,29,-1
 69 124 l 1,24,-1
182 0 m 1,30,-1
 135 52 l 1,31,-1
 191 104 l 1,32,-1
 293 104 l 1,33,-1
 341 52 l 1,34,-1
 284 0 l 1,35,-1
 182 0 l 1,30,-1
314 124 m 1,36,-1
 320 199 l 1,37,-1
 395 199 l 1,38,-1
 508 75 l 1,39,-1
 501 0 l 1,40,-1
 427 0 l 1,41,-1
 314 124 l 1,36,-1
EndSplineSet
EndChar

StartChar: r
Encoding: 114 114 85
Width: 560
Flags: W
LayerCount: 2
Fore
SplineSet
226 200 m 1,0,-1
 233 274 l 1,1,-1
 308 274 l 1,2,-1
 491 75 l 1,3,-1
 484 0 l 1,4,-1
 409 0 l 1,5,-1
 226 200 l 1,0,-1
185 265 m 1,6,-1
 171 104 l 1,7,-1
 58 0 l 1,8,-1
 83 291 l 1,9,-1
 126 330 l 1,10,-1
 185 265 l 1,6,-1
94 409 m 1,11,-1
 117 680 l 1,12,-1
 212 576 l 1,13,-1
 200 435 l 1,14,-1
 129 369 l 1,15,-1
 94 409 l 1,11,-1
426 402 m 1,16,-1
 474 350 l 1,17,-1
 417 298 l 1,18,-1
 195 298 l 1,19,-1
 148 350 l 1,20,-1
 204 402 l 1,21,-1
 426 402 l 1,16,-1
537 409 m 1,22,-1
 494 369 l 1,23,-1
 435 435 l 1,24,-1
 447 576 l 1,25,-1
 504 628 l 1,26,-1
 551 576 l 1,27,-1
 537 409 l 1,22,-1
487 648 m 1,28,-1
 430 595 l 1,29,-1
 234 595 l 1,30,-1
 139 700 l 1,31,-1
 439 700 l 1,32,-1
 487 648 l 1,28,-1
EndSplineSet
EndChar

StartChar: s
Encoding: 115 115 86
Width: 560
Flags: W
LayerCount: 2
Fore
SplineSet
558 648 m 1,0,-1
 501 595 l 1,1,-1
 234 595 l 1,2,-1
 187 648 l 1,3,-1
 243 700 l 1,4,-1
 510 700 l 1,5,-1
 558 648 l 1,0,-1
512 124 m 1,6,-1
 455 72 l 1,7,-1
 408 124 l 1,8,-1
 420 265 l 1,9,-1
 491 330 l 1,10,-1
 526 291 l 1,11,-1
 512 124 l 1,6,-1
200 435 m 1,12,-1
 129 369 l 1,13,-1
 94 409 l 1,14,-1
 108 576 l 1,15,-1
 165 628 l 1,16,-1
 212 576 l 1,17,-1
 200 435 l 1,12,-1
110 0 m 1,18,-1
 63 52 l 1,19,-1
 119 104 l 1,20,-1
 387 104 l 1,21,-1
 435 52 l 1,22,-1
 378 0 l 1,23,-1
 110 0 l 1,18,-1
426 402 m 1,24,-1
 474 350 l 1,25,-1
 417 298 l 1,26,-1
 195 298 l 1,27,-1
 148 350 l 1,28,-1
 204 402 l 1,29,-1
 426 402 l 1,24,-1
EndSplineSet
EndChar

StartChar: t
Encoding: 116 116 87
Width: 560
Flags: W
LayerCount: 2
Fore
SplineSet
336 48 m 1,0,-1
 280 -4 l 1,1,-1
 232 48 l 1,2,-1
 251 265 l 1,3,-1
 322 330 l 1,4,-1
 357 291 l 1,5,-1
 336 48 l 1,0,-1
368 409 m 1,6,-1
 325 369 l 1,7,-1
 266 435 l 1,8,-1
 273 515 l 1,9,-1
 330 567 l 1,10,-1
 377 515 l 1,11,-1
 368 409 l 1,6,-1
582 648 m 1,12,-1
 524 595 l 1,13,-1
 139 595 l 1,14,-1
 92 648 l 1,15,-1
 148 700 l 1,16,-1
 533 700 l 1,17,-1
 582 648 l 1,12,-1
EndSplineSet
EndChar

StartChar: u
Encoding: 117 117 88
Width: 560
Flags: W
LayerCount: 2
Fore
SplineSet
512 124 m 1,0,-1
 455 72 l 1,1,-1
 408 124 l 1,2,-1
 420 265 l 1,3,-1
 491 330 l 1,4,-1
 526 291 l 1,5,-1
 512 124 l 1,0,-1
69 124 m 1,6,-1
 116 72 l 1,7,-1
 173 124 l 1,8,-1
 185 265 l 1,9,-1
 126 330 l 1,10,-1
 83 291 l 1,11,-1
 69 124 l 1,6,-1
182 0 m 1,12,-1
 135 52 l 1,13,-1
 191 104 l 1,14,-1
 387 104 l 1,15,-1
 435 52 l 1,16,-1
 378 0 l 1,17,-1
 182 0 l 1,12,-1
537 409 m 1,18,-1
 494 369 l 1,19,-1
 435 435 l 1,20,-1
 449 595 l 1,21,-1
 562 700 l 1,22,-1
 537 409 l 1,18,-1
119 700 m 1,23,-1
 214 595 l 1,24,-1
 200 435 l 1,25,-1
 129 369 l 1,26,-1
 94 409 l 1,27,-1
 119 700 l 1,23,-1
EndSplineSet
EndChar

StartChar: v
Encoding: 118 118 89
Width: 537
Flags: W
LayerCount: 2
Fore
SplineSet
538 419 m 1,0,-1
 495 380 l 1,1,-1
 436 446 l 1,2,-1
 449 595 l 1,3,-1
 562 700 l 1,4,-1
 538 419 l 1,0,-1
201 446 m 1,5,-1
 130 380 l 1,6,-1
 95 419 l 1,7,-1
 119 700 l 1,8,-1
 214 595 l 1,9,-1
 201 446 l 1,5,-1
492 341 m 1,10,-1
 477 249 l 1,11,-1
 273 50 l 1,12,-1
 199 50 l 1,13,-1
 206 124 l 1,14,-1
 408 323 l 1,15,-1
 492 341 l 1,10,-1
166 50 m 1,16,-1
 110 -3 l 1,17,-1
 62 50 l 1,18,-1
 84 302 l 1,19,-1
 127 341 l 1,20,-1
 186 275 l 1,21,-1
 166 50 l 1,16,-1
EndSplineSet
EndChar

StartChar: w
Encoding: 119 119 90
Width: 560
Flags: W
LayerCount: 2
Fore
SplineSet
537 409 m 1,0,-1
 494 369 l 1,1,-1
 435 435 l 1,2,-1
 449 595 l 1,3,-1
 562 700 l 1,4,-1
 537 409 l 1,0,-1
200 435 m 1,5,-1
 129 369 l 1,6,-1
 94 409 l 1,7,-1
 119 700 l 1,8,-1
 214 595 l 1,9,-1
 200 435 l 1,5,-1
503 20 m 1,10,-1
 408 124 l 1,11,-1
 420 265 l 1,12,-1
 491 330 l 1,13,-1
 526 291 l 1,14,-1
 503 20 l 1,10,-1
352 180 m 1,15,-1
 295 128 l 1,16,-1
 247 180 l 1,17,-1
 265 386 l 1,18,-1
 322 439 l 1,19,-1
 370 386 l 1,20,-1
 352 180 l 1,15,-1
482 0 m 1,21,-1
 78 0 l 1,22,-1
 191 104 l 1,23,-1
 387 104 l 1,24,-1
 482 0 l 1,21,-1
173 124 m 1,25,-1
 60 20 l 1,26,-1
 83 291 l 1,27,-1
 126 330 l 1,28,-1
 185 265 l 1,29,-1
 173 124 l 1,25,-1
EndSplineSet
EndChar

StartChar: x
Encoding: 120 120 91
Width: 537
Flags: W
LayerCount: 2
Fore
SplineSet
332 369 m 1,0,-1
 342 484 l 1,1,-1
 502 700 l 1,2,-1
 562 700 l 1,3,-1
 553 598 l 1,4,-1
 385 369 l 1,5,-1
 332 369 l 1,0,-1
240 369 m 1,6,-1
 110 598 l 1,7,-1
 119 700 l 1,8,-1
 180 700 l 1,9,-1
 303 484 l 1,10,-1
 293 369 l 1,11,-1
 240 369 l 1,6,-1
290 330 m 1,12,-1
 280 215 l 1,13,-1
 120 0 l 1,14,-1
 58 0 l 1,15,-1
 67 102 l 1,16,-1
 237 330 l 1,17,-1
 290 330 l 1,12,-1
382 330 m 1,18,-1
 510 102 l 1,19,-1
 501 0 l 1,20,-1
 441 0 l 1,21,-1
 319 216 l 1,22,-1
 329 330 l 1,23,-1
 382 330 l 1,18,-1
EndSplineSet
EndChar

StartChar: y
Encoding: 121 121 92
Width: 560
Flags: W
LayerCount: 2
Fore
SplineSet
537 409 m 1,0,-1
 494 369 l 1,1,-1
 435 435 l 1,2,-1
 449 595 l 1,3,-1
 562 700 l 1,4,-1
 537 409 l 1,0,-1
94 409 m 1,5,-1
 129 369 l 1,6,-1
 200 435 l 1,7,-1
 214 595 l 1,8,-1
 119 700 l 1,9,-1
 94 409 l 1,5,-1
149 0 m 1,10,-1
 102 52 l 1,11,-1
 158 104 l 1,12,-1
 387 104 l 1,13,-1
 435 52 l 1,14,-1
 378 0 l 1,15,-1
 149 0 l 1,10,-1
512 124 m 1,16,-1
 455 72 l 1,17,-1
 408 124 l 1,18,-1
 420 265 l 1,19,-1
 491 330 l 1,20,-1
 526 291 l 1,21,-1
 512 124 l 1,16,-1
426 402 m 1,22,-1
 474 350 l 1,23,-1
 417 298 l 1,24,-1
 195 298 l 1,25,-1
 148 350 l 1,26,-1
 204 402 l 1,27,-1
 426 402 l 1,22,-1
EndSplineSet
EndChar

StartChar: z
Encoding: 122 122 93
Width: 560
Flags: W
LayerCount: 2
Fore
SplineSet
558 648 m 1,0,-1
 501 595 l 1,1,-1
 214 595 l 1,2,-1
 119 700 l 1,3,-1
 510 700 l 1,4,-1
 558 648 l 1,0,-1
492 494 m 1,5,-1
 398 370 l 1,6,-1
 304 360 l 1,7,-1
 305 415 l 1,8,-1
 425 571 l 1,9,-1
 499 571 l 1,10,-1
 492 494 l 1,5,-1
295 254 m 1,11,-1
 199 128 l 1,12,-1
 121 128 l 1,13,-1
 127 200 l 1,14,-1
 235 340 l 1,15,-1
 291 345 l 1,16,-1
 295 254 l 1,11,-1
489 0 m 1,17,-1
 110 0 l 1,18,-1
 63 52 l 1,19,-1
 119 104 l 1,20,-1
 394 104 l 1,21,-1
 489 0 l 1,17,-1
EndSplineSet
EndChar

StartChar: braceleft
Encoding: 123 123 94
Width: 432
Flags: W
LayerCount: 2
Fore
SplineSet
470 700 m 1,0,-1
 356 595 l 1,1,-1
 309 595 l 1,2,-1
 262 648 l 1,3,-1
 318 700 l 1,4,-1
 470 700 l 1,0,-1
274 409 m 1,5,-1
 231 369 l 1,6,-1
 172 435 l 1,7,-1
 184 576 l 1,8,-1
 241 628 l 1,9,-1
 288 576 l 1,10,-1
 274 409 l 1,5,-1
210 350 m 1,11,-1
 153 298 l 1,12,-1
 102 298 l 1,13,-1
 54 350 l 1,14,-1
 111 402 l 1,15,-1
 162 402 l 1,16,-1
 210 350 l 1,11,-1
249 124 m 1,17,-1
 192 72 l 1,18,-1
 145 124 l 1,19,-1
 157 265 l 1,20,-1
 228 330 l 1,21,-1
 263 291 l 1,22,-1
 249 124 l 1,17,-1
409 0 m 1,23,-1
 257 0 l 1,24,-1
 210 52 l 1,25,-1
 266 104 l 1,26,-1
 313 104 l 1,27,-1
 409 0 l 1,23,-1
EndSplineSet
EndChar

StartChar: bar
Encoding: 124 124 95
Width: 347
Flags: W
LayerCount: 2
Fore
SplineSet
106 -187 m 1,0,-1
 183 700 l 1,1,-1
 286 700 l 1,2,-1
 209 -187 l 1,3,-1
 106 -187 l 1,0,-1
EndSplineSet
EndChar

StartChar: braceright
Encoding: 125 125 96
Width: 432
Flags: W
LayerCount: 2
Fore
SplineSet
284 648 m 1,0,-1
 227 595 l 1,1,-1
 180 595 l 1,2,-1
 84 700 l 1,3,-1
 236 700 l 1,4,-1
 284 648 l 1,0,-1
337 435 m 1,5,-1
 266 369 l 1,6,-1
 230 409 l 1,7,-1
 244 576 l 1,8,-1
 302 628 l 1,9,-1
 349 576 l 1,10,-1
 337 435 l 1,5,-1
440 350 m 1,11,-1
 382 298 l 1,12,-1
 331 298 l 1,13,-1
 284 350 l 1,14,-1
 340 402 l 1,15,-1
 391 402 l 1,16,-1
 440 350 l 1,11,-1
310 124 m 1,17,-1
 253 72 l 1,18,-1
 205 124 l 1,19,-1
 219 291 l 1,20,-1
 263 330 l 1,21,-1
 322 265 l 1,22,-1
 310 124 l 1,17,-1
232 52 m 1,23,-1
 175 0 l 1,24,-1
 23 0 l 1,25,-1
 137 104 l 1,26,-1
 184 104 l 1,27,-1
 232 52 l 1,23,-1
EndSplineSet
EndChar

StartChar: asciitilde
Encoding: 126 126 97
Width: 466
Flags: W
LayerCount: 2
Fore
SplineSet
70 260 m 1,0,-1
 78 355 l 1,1,2
 101 378 101 378 123.5 388.5 c 128,-1,3
 146 399 146 399 171 399 c 0,4,5
 210 399 210 399 273 371 c 0,6,7
 311 354 311 354 344 354 c 0,8,9
 372 354 372 354 398.5 368.5 c 128,-1,10
 425 383 425 383 455 413 c 1,11,-1
 446 314 l 1,12,13
 429 294 429 294 399.5 282.5 c 128,-1,14
 370 271 370 271 334 271 c 0,15,16
 299 271 299 271 266 281 c 0,17,18
 258 284 258 284 221 302 c 0,19,20
 195 315 195 315 175 315 c 0,21,22
 154 315 154 315 129.5 302.5 c 128,-1,23
 105 290 105 290 70 260 c 1,0,-1
EndSplineSet
EndChar

StartChar: perthousand
Encoding: 8240 8240 98
Width: 1115
Flags: W
LayerCount: 2
Fore
SplineSet
347 650 m 1,0,-1
 289 598 l 1,1,-1
 234 598 l 1,2,-1
 187 650 l 1,3,-1
 244 703 l 1,4,-1
 299 703 l 1,5,-1
 347 650 l 1,0,-1
327 423 m 1,6,-1
 269 370 l 1,7,-1
 214 370 l 1,8,-1
 167 423 l 1,9,-1
 224 475 l 1,10,-1
 279 475 l 1,11,-1
 327 423 l 1,6,-1
101 494 m 1,12,-1
 149 445 l 1,13,-1
 205 494 l 1,14,-1
 213 578 l 1,15,-1
 165 631 l 1,16,-1
 109 578 l 1,17,-1
 101 494 l 1,12,-1
300 494 m 1,18,-1
 308 578 l 1,19,-1
 364 631 l 1,20,-1
 412 578 l 1,21,-1
 404 494 l 1,22,-1
 348 445 l 1,23,-1
 300 494 l 1,18,-1
663 281 m 1,24,-1
 606 229 l 1,25,-1
 552 229 l 1,26,-1
 504 281 l 1,27,-1
 561 334 l 1,28,-1
 615 334 l 1,29,-1
 663 281 l 1,24,-1
643 59 m 1,30,-1
 587 7 l 1,31,-1
 533 7 l 1,32,-1
 484 59 l 1,33,-1
 542 111 l 1,34,-1
 596 111 l 1,35,-1
 643 59 l 1,30,-1
418 130 m 1,36,-1
 466 81 l 1,37,-1
 523 130 l 1,38,-1
 530 210 l 1,39,-1
 482 262 l 1,40,-1
 425 210 l 1,41,-1
 418 130 l 1,36,-1
617 130 m 1,42,-1
 624 210 l 1,43,-1
 681 262 l 1,44,-1
 728 210 l 1,45,-1
 721 130 l 1,46,-1
 665 81 l 1,47,-1
 617 130 l 1,42,-1
437 481 m 1,48,-1
 594 716 l 1,49,-1
 739 754 l 1,50,-1
 508 406 l 1,51,-1
 453 393 l 1,52,-1
 437 481 l 1,48,-1
440 305 m 1,53,-1
 193 -66 l 1,54,-1
 168 76 l 1,55,-1
 339 334 l 1,56,-1
 431 359 l 1,57,-1
 440 305 l 1,53,-1
1010 281 m 1,58,-1
 953 229 l 1,59,-1
 898 229 l 1,60,-1
 851 281 l 1,61,-1
 907 334 l 1,62,-1
 962 334 l 1,63,-1
 1010 281 l 1,58,-1
990 59 m 1,64,-1
 934 7 l 1,65,-1
 879 7 l 1,66,-1
 831 59 l 1,67,-1
 888 111 l 1,68,-1
 943 111 l 1,69,-1
 990 59 l 1,64,-1
765 130 m 1,70,-1
 813 81 l 1,71,-1
 869 130 l 1,72,-1
 876 210 l 1,73,-1
 829 262 l 1,74,-1
 772 210 l 1,75,-1
 765 130 l 1,70,-1
964 130 m 1,76,-1
 971 210 l 1,77,-1
 1028 262 l 1,78,-1
 1075 210 l 1,79,-1
 1068 130 l 1,80,-1
 1012 81 l 1,81,-1
 964 130 l 1,76,-1
EndSplineSet
EndChar

StartChar: quoteright
Encoding: 8217 8217 99
Width: 198
Flags: W
LayerCount: 2
Fore
SplineSet
195 508 m 1,0,-1
 91 508 l 1,1,-1
 104 648 l 1,2,-1
 160 700 l 1,3,-1
 208 648 l 1,4,-1
 195 508 l 1,0,-1
EndSplineSet
EndChar

StartChar: quotedblleft
Encoding: 8220 8220 100
Width: 198
Flags: W
LayerCount: 2
Fore
SplineSet
200 561 m 1,0,-1
 143 508 l 1,1,-1
 96 561 l 1,2,-1
 108 700 l 1,3,-1
 212 700 l 1,4,-1
 200 561 l 1,0,-1
EndSplineSet
EndChar

StartChar: quotedblright
Encoding: 8221 8221 101
Width: 340
Flags: W
LayerCount: 2
Fore
SplineSet
337 508 m 1,0,-1
 232 508 l 1,1,-1
 245 648 l 1,2,-1
 302 700 l 1,3,-1
 350 648 l 1,4,-1
 337 508 l 1,0,-1
195 508 m 1,5,-1
 91 508 l 1,6,-1
 104 648 l 1,7,-1
 160 700 l 1,8,-1
 208 648 l 1,9,-1
 195 508 l 1,5,-1
EndSplineSet
EndChar

StartChar: bullet
Encoding: 8226 8226 102
Width: 340
Flags: W
LayerCount: 2
Fore
SplineSet
200 561 m 1,0,-1
 143 508 l 1,1,-1
 96 561 l 1,2,-1
 108 700 l 1,3,-1
 212 700 l 1,4,-1
 200 561 l 1,0,-1
342 561 m 1,5,-1
 285 508 l 1,6,-1
 237 561 l 1,7,-1
 249 700 l 1,8,-1
 354 700 l 1,9,-1
 342 561 l 1,5,-1
EndSplineSet
EndChar

StartChar: endash
Encoding: 8211 8211 103
Width: 513
Flags: W
LayerCount: 2
Fore
SplineSet
78 350 m 0,0,1
 85 437 85 437 152 498.5 c 128,-1,2
 219 560 219 560 305 560 c 0,3,4
 388 560 388 560 443 505 c 128,-1,5
 498 450 498 450 498 369 c 0,6,7
 498 356 498 356 497 350 c 0,8,9
 489 263 489 263 422.5 201.5 c 128,-1,10
 356 140 356 140 268 140 c 0,11,12
 187 140 187 140 132 195 c 128,-1,13
 77 250 77 250 77 330 c 0,14,15
 77 343 77 343 78 350 c 0,0,1
EndSplineSet
EndChar

StartChar: emdash
Encoding: 8212 8212 104
Width: 532
Flags: W
LayerCount: 2
Fore
SplineSet
526 387 m 1,0,-1
 561 350 l 1,1,-1
 519 313 l 1,2,-1
 63 313 l 1,3,-1
 29 350 l 1,4,-1
 70 387 l 1,5,-1
 526 387 l 1,0,-1
EndSplineSet
EndChar
